<svg width="417" height="53" viewBox="0 0 417 53" fill="none" xmlns="http://www.w3.org/2000/svg">
<path d="M44.268 24.7896C45.3046 25.0514 46.272 25.3684 47.1565 25.7542C49.6857 26.8428 51.5792 28.331 52.8231 30.2325C54.0669 32.1341 54.6889 34.3664 54.6889 36.9431C54.6889 39.6439 54.0808 42.0691 52.8507 44.2187C51.6207 46.3683 49.7825 48.0494 47.2947 49.262C44.807 50.4746 41.725 51.0947 38.0348 51.0947H0V1.29564H36.6251C41.2412 1.29564 44.8485 2.37043 47.4468 4.52003C50.0451 6.66963 51.3442 9.64597 51.3442 13.4491C51.3442 15.5711 50.8605 17.583 49.9069 19.4983C48.9533 21.3999 47.3777 23.0121 45.1802 24.3073C44.8899 24.4865 44.5721 24.6519 44.2542 24.8034L44.268 24.7896ZM15.2029 40.5947H33.4463C35.1739 40.5947 36.5284 40.1675 37.5096 39.2994C38.4909 38.4313 38.9746 37.2325 38.9746 35.6754C38.9746 34.2148 38.4633 33.0022 37.4405 32.0514C36.4178 31.1006 34.9251 30.6184 32.9764 30.6184H15.1891V40.5809L15.2029 40.5947ZM15.2029 20.4078H30.7927C32.1748 20.4078 33.3219 19.9806 34.2617 19.14C35.1877 18.2995 35.6576 17.1971 35.6576 15.8192C35.6576 14.6755 35.243 13.711 34.4276 12.9255C33.6122 12.1539 32.4374 11.768 30.9309 11.768H15.2167V20.394L15.2029 20.4078ZM76.5395 22.7916H89.1994C91.1481 22.7916 92.6684 22.3507 93.7602 21.4688C94.8521 20.5869 95.3911 19.3054 95.3911 17.6105C95.3911 15.9157 94.8521 14.6479 93.7602 13.766C92.6684 12.8842 91.1481 12.4432 89.1994 12.4432H76.5395V22.8054V22.7916ZM76.5395 33.8152V51.0809H61.0188V1.28185H91.5213C95.3773 1.28185 98.7772 1.97081 101.707 3.33497C104.637 4.69914 106.918 6.61451 108.562 9.0397C110.207 11.4787 111.022 14.331 111.022 17.6105C111.022 20.8901 110.207 23.6184 108.562 26.0711C106.918 28.5239 104.637 30.4254 101.707 31.7758C100.933 32.1341 100.132 32.4372 99.2886 32.699L112.833 51.0671H95.0456L82.7174 33.8014H76.5395V33.8152ZM118.499 1.28185H134.02V51.0809H118.499V1.28185ZM168.31 1.28185C174.308 1.28185 179.56 2.31529 184.065 4.36844C188.571 6.42158 192.081 9.31528 194.583 13.0357C197.084 16.7562 198.342 21.1381 198.342 26.1814C198.342 31.2247 197.084 35.5514 194.583 39.2994C192.068 43.0337 188.571 45.9411 184.065 47.9943C179.56 50.0474 174.308 51.0809 168.31 51.0809H142.603V1.28185H168.31ZM157.985 37.3428H169.512C172.221 37.3428 174.557 36.888 176.533 35.9786C178.509 35.0691 180.03 33.7738 181.094 32.0927C182.158 30.4116 182.697 28.4412 182.697 26.1814C182.697 23.9215 182.158 21.896 181.094 20.2424C180.03 18.5889 178.509 17.2936 176.533 16.3841C174.557 15.4747 172.221 15.02 169.512 15.02H157.985V37.329V37.3428ZM250.267 45.0868L250.032 45.3348C247.986 47.4844 245.416 49.1655 242.306 50.3781C239.196 51.5907 235.562 52.2108 231.388 52.2108C227.476 52.2108 223.814 51.6459 220.4 50.5159C216.986 49.386 213.96 47.7325 211.348 45.5415C208.722 43.3506 206.676 40.636 205.183 37.4116C203.691 34.1735 202.958 30.4392 202.958 26.1951C202.958 21.951 203.705 18.203 205.183 14.9787C206.676 11.7543 208.763 9.0397 211.444 6.84877C214.126 4.65783 217.235 3.00427 220.773 1.87435C224.298 0.744436 228.112 0.179504 232.189 0.179504C237.828 0.179504 242.679 1.02003 246.743 2.70113C250.806 4.38223 254.081 6.71096 256.569 9.67354C259.057 12.6361 260.66 16.0535 261.365 19.8979H245.775C245.374 18.4373 244.545 17.1834 243.274 16.1499C242.002 15.1165 240.44 14.3172 238.574 13.766C236.709 13.2149 234.622 12.9393 232.314 12.9393C229.467 12.9393 227.02 13.4216 224.961 14.3999C222.902 15.3782 221.312 16.8389 220.193 18.7818C219.087 20.7247 218.534 23.205 218.534 26.2227C218.534 29.2404 219.142 31.762 220.373 33.7876C221.589 35.827 223.344 37.3565 225.638 38.3624C227.919 39.3821 230.628 39.8919 233.723 39.8919C236.819 39.8919 239.418 39.4923 241.753 38.6931C244.089 37.8939 245.955 36.7227 247.378 35.1794C247.655 34.89 247.904 34.5731 248.125 34.2561H234.649V24.6243H261.821V51.1222H250.972L250.267 45.1282V45.0868ZM269.547 1.28185H285.068V51.0809H269.547V1.28185ZM335.486 33.4707V1.28185H350.537V51.0809H331.091L308.646 17.8723V51.0809H293.664V1.28185H313.704L335.486 33.4707ZM404.452 45.0868L404.217 45.3348C402.171 47.4844 399.601 49.1655 396.491 50.3781C393.381 51.5907 389.746 52.2108 385.572 52.2108C381.661 52.2108 377.999 51.6459 374.585 50.5159C371.171 49.386 368.144 47.7325 365.532 45.5415C362.906 43.3506 360.861 40.636 359.368 37.4116C357.876 34.1735 357.143 30.4392 357.143 26.1951C357.143 21.951 357.889 18.203 359.368 14.9787C360.861 11.7543 362.948 9.0397 365.629 6.84877C368.31 4.65783 371.42 3.00427 374.958 1.87435C378.482 0.744436 382.297 0.179504 386.374 0.179504C392.013 0.179504 396.864 1.02003 400.927 2.70113C404.991 4.38223 408.266 6.71096 410.754 9.67354C413.242 12.6361 414.845 16.0535 415.55 19.8979H399.96C399.559 18.4373 398.73 17.1834 397.458 16.1499C396.187 15.1165 394.625 14.3172 392.759 13.766C390.893 13.2149 388.806 12.9393 386.498 12.9393C383.651 12.9393 381.205 13.4216 379.146 14.3999C377.086 15.3782 375.497 16.8389 374.378 18.7818C373.272 20.7247 372.719 23.205 372.719 26.2227C372.719 29.2404 373.327 31.762 374.557 33.7876C375.773 35.827 377.529 37.3565 379.823 38.3624C382.103 39.3821 384.812 39.8919 387.922 39.8919C391.032 39.8919 393.616 39.4923 395.952 38.6931C398.288 37.8939 400.153 36.7227 401.577 35.1794C401.853 34.89 402.102 34.5731 402.323 34.2561H388.848V24.6243H416.02V51.1222H405.17L404.465 45.1282L404.452 45.0868Z" fill="white"/>
</svg>
