<svg width="400" height="1239" viewBox="0 0 400 1239" fill="none" xmlns="http://www.w3.org/2000/svg">
<path d="M351.794 0H207.175H158.968H-324V1239H400V0H351.794ZM303.587 0.905117H350.889V47.6191H303.587V0.905421V0.905117ZM350.889 95.2382H303.587V48.5242H350.889V95.2382ZM350.889 142.857H303.587V96.143H350.889V142.857ZM350.889 190.476H303.587V143.762H350.889V190.476ZM350.889 238.095H303.587V191.381H350.889V238.095ZM350.889 285.714H303.587V239H350.889V285.714ZM350.889 333.333H303.587V286.619H350.889V333.333ZM350.889 380.952H303.587V334.238H350.889V380.952ZM350.889 428.571H303.587V381.858H350.889V428.571ZM350.889 476.19H303.587V429.476H350.889V476.19ZM350.889 523.809H303.587V477.096H350.889V523.809ZM350.889 571.428H303.587V524.714H350.889V571.428ZM350.889 619.047H303.587V572.333H350.889V619.047ZM350.889 666.667H303.587V619.953H350.889V666.667ZM350.889 714.286H303.587V667.572H350.889V714.286ZM350.889 761.904H303.587V715.191H350.889V761.904ZM350.889 809.524H303.587V762.81H350.889V809.524ZM350.889 857.143H303.587V810.429H350.889V857.143ZM350.889 904.762H303.587V858.048H350.889V904.762ZM350.889 952.381H303.587V905.667H350.889V952.381ZM350.889 1000H303.587V953.286H350.889V1000ZM350.889 1047.62H303.587V1000.9H350.889V1047.62ZM350.889 1095.24H303.587V1048.52H350.889V1095.24ZM350.889 1142.86H303.587V1096.14H350.889V1142.86ZM350.889 1190.48H303.587V1143.76H350.889V1190.48ZM-274.889 1143.76H-227.587V1190.48H-274.889V1143.76ZM-274.889 1096.14H-227.587V1142.86H-274.889V1096.14ZM-274.889 1048.52H-227.587V1095.24H-274.889V1048.52ZM-274.889 1000.9H-227.587V1047.62H-274.889V1000.9ZM-274.889 953.286H-227.587V1000H-274.889V953.286ZM-274.889 905.667H-227.587V952.381H-274.889V905.667ZM-274.889 858.048H-227.587V904.761H-274.889V858.048ZM-274.889 810.429H-227.587V857.143H-274.889V810.429ZM-274.889 762.81H-227.587V809.524H-274.889V762.81ZM-274.889 715.19H-227.587V761.904H-274.889V715.19ZM-274.889 667.572H-227.587V714.285H-274.889V667.572ZM-274.889 619.953H-227.587V666.667H-274.889V619.953ZM-274.889 572.333H-227.587V619.047H-274.889V572.333ZM-274.889 524.714H-227.587V571.428H-274.889V524.714ZM-274.889 477.096H-227.587V523.81H-274.889V477.096ZM-274.889 429.476H-227.587V476.19H-274.889V429.476ZM-274.889 381.857H-227.587V428.571H-274.889V381.857ZM-274.889 334.238H-227.587V380.952H-274.889V334.238ZM-274.889 286.619H-227.587V333.333H-274.889V286.619ZM-274.889 239H-227.587V285.714H-274.889V239ZM-274.889 191.381H-227.587V238.095H-274.889V191.381ZM-274.889 143.762H-227.587V190.476H-274.889V143.762ZM-274.889 96.143H-227.587V142.857H-274.889V96.143ZM-274.889 48.5242H-227.587V95.2382H-274.889V48.5242ZM302.682 95.2382H255.381V48.5242H302.682V95.2382ZM302.682 142.857H255.381V96.143H302.682V142.857ZM302.682 190.476H255.381V143.762H302.682V190.476ZM302.682 238.095H255.381V191.381H302.682V238.095ZM302.682 285.714H255.381V239H302.682V285.714ZM302.682 333.333H255.381V286.619H302.682V333.333ZM302.682 380.952H255.381V334.238H302.682V380.952ZM302.682 428.571H255.381V381.858H302.682V428.571ZM302.682 476.19H255.381V429.476H302.682V476.19ZM302.682 523.809H255.381V477.096H302.682V523.809ZM302.682 571.428H255.381V524.714H302.682V571.428ZM302.682 619.047H255.381V572.333H302.682V619.047ZM302.682 666.667H255.381V619.953H302.682V666.667ZM302.682 714.286H255.381V667.572H302.682V714.286ZM302.682 761.904H255.381V715.191H302.682V761.904ZM302.682 809.524H255.381V762.81H302.682V809.524ZM302.682 857.143H255.381V810.429H302.682V857.143ZM302.682 904.762H255.381V858.048H302.682V904.762ZM302.682 952.381H255.381V905.667H302.682V952.381ZM302.682 1000H255.381V953.286H302.682V1000ZM302.682 1047.62H255.381V1000.9H302.682V1047.62ZM302.682 1095.24H255.381V1048.52H302.682V1095.24ZM302.682 1142.86H255.381V1096.14H302.682V1142.86ZM-226.682 1096.14H-179.381V1142.86H-226.682V1096.14ZM-226.682 1048.52H-179.381V1095.24H-226.682V1048.52ZM-226.682 1000.9H-179.381V1047.62H-226.682V1000.9ZM-226.682 953.286H-179.381V1000H-226.682V953.286ZM-226.682 905.667H-179.381V952.381H-226.682V905.667ZM-226.682 858.048H-179.381V904.761H-226.682V858.048ZM-226.682 810.429H-179.381V857.143H-226.682V810.429ZM-226.682 762.81H-179.381V809.524H-226.682V762.81ZM-226.682 715.19H-179.381V761.904H-226.682V715.19ZM-226.682 667.572H-179.381V714.285H-226.682V667.572ZM-226.682 619.953H-179.381V666.667H-226.682V619.953ZM-226.682 572.333H-179.381V619.047H-226.682V572.333ZM-226.682 524.714H-179.381V571.428H-226.682V524.714ZM-226.682 477.096H-179.381V523.81H-226.682V477.096ZM-226.682 429.476H-179.381V476.19H-226.682V429.476ZM-226.682 381.857H-179.381V428.571H-226.682V381.857ZM-226.682 334.238H-179.381V380.952H-226.682V334.238ZM-226.682 286.619H-179.381V333.333H-226.682V286.619ZM-226.682 239H-179.381V285.714H-226.682V239ZM-226.682 191.381H-179.381V238.095H-226.682V191.381ZM-226.682 143.762H-179.381V190.476H-226.682V143.762ZM-226.682 96.143H-179.381V142.857H-226.682V96.143ZM254.476 96.1433V142.857H207.175V96.1433H230.825H254.476ZM254.476 190.476H207.175V143.762H254.476V190.476ZM254.476 238.095H207.175V191.381H254.476V238.095ZM254.476 285.714H207.175V239H254.476V285.714ZM254.476 333.333H207.175V286.619H254.476V333.333ZM254.476 380.952H207.175V334.238H254.476V380.952ZM254.476 428.571H207.175V381.858H254.476V428.571ZM254.476 476.19H207.175V429.476H254.476V476.19ZM254.476 523.809H207.175V477.096H254.476V523.809ZM254.476 571.428H207.175V524.714H254.476V571.428ZM254.476 619.047H207.175V572.333H254.476V619.047ZM254.476 666.667H207.175V619.953H254.476V666.667ZM254.476 714.286H207.175V667.572H254.476V714.286ZM254.476 761.904H207.175V715.191H254.476V761.904ZM254.476 809.524H207.175V762.81H254.476V809.524ZM254.476 857.143H207.175V810.429H254.476V857.143ZM254.476 904.762H207.175V858.048H254.476V904.762ZM254.476 952.381H207.175V905.667H254.476V952.381ZM254.476 1000H207.175V953.286H254.476V1000ZM254.476 1047.62H207.175V1000.9H254.476V1047.62ZM254.476 1095.24H207.175V1048.52H254.476V1095.24ZM-178.476 1048.52H-131.175V1095.24H-178.476V1048.52ZM-178.476 1000.9H-131.175V1047.62H-178.476V1000.9ZM-178.476 953.286H-131.175V1000H-178.476V953.286ZM-178.476 905.667H-131.175V952.381H-178.476V905.667ZM-178.476 858.048H-131.175V904.761H-178.476V858.048ZM-178.476 810.429H-131.175V857.143H-178.476V810.429ZM-178.476 762.81H-131.175V809.524H-178.476V762.81ZM-178.476 715.19H-131.175V761.904H-178.476V715.19ZM-178.476 667.572H-131.175V714.285H-178.476V667.572ZM-178.476 619.953H-131.175V666.667H-178.476V619.953ZM-178.476 572.333H-131.175V619.047H-178.476V572.333ZM-178.476 524.714H-131.175V571.428H-178.476V524.714ZM-178.476 477.096H-131.175V523.81H-178.476V477.096ZM-178.476 429.476H-131.175V476.19H-178.476V429.476ZM-178.476 381.857H-131.175V428.571H-178.476V381.857ZM-178.476 334.238H-131.175V380.952H-178.476V334.238ZM-178.476 286.619H-131.175V333.333H-178.476V286.619ZM-178.476 239H-131.175V285.714H-178.476V239ZM-178.476 191.381H-131.175V238.095H-178.476V191.381ZM-178.476 143.762H-131.175V190.476H-178.476V143.762ZM206.27 190.476H182.619H158.968V143.762H206.27V190.476V190.476ZM206.27 238.095H158.968V191.381H182.619H206.27V238.095ZM206.27 285.714H158.968V239H206.27V285.714ZM206.27 333.333H158.968V286.619H206.27V333.333ZM206.27 380.952H158.968V334.238H206.27V380.952ZM206.27 428.571H158.968V381.858H206.27V428.571ZM206.27 476.19H158.968V429.476H206.27V476.19ZM206.27 523.809H158.968V477.096H206.27V523.809ZM206.27 571.428H158.968V524.714H206.27V571.428ZM206.27 619.047H158.968V572.333H206.27V619.047ZM206.27 666.667H158.968V619.953H206.27V666.667ZM206.27 714.286H158.968V667.572H206.27V714.286ZM206.27 761.904H158.968V715.191H206.27V761.904ZM206.27 809.524H158.968V762.81H206.27V809.524ZM206.27 857.143H158.968V810.429H206.27V857.143ZM206.27 904.762H158.968V858.048H206.27V904.762ZM206.27 952.381H158.968V905.667H206.27V952.381ZM206.27 1000H158.968V953.286H206.27V1000ZM206.27 1047.62H158.968V1000.9H206.27V1047.62ZM-130.27 1000.9H-82.9684V1047.62H-130.27V1000.9ZM-130.27 953.286H-82.9684V1000H-130.27V953.286ZM-130.27 905.667H-82.9684V952.381H-130.27V905.667ZM-130.27 858.048H-82.9684V904.761H-130.27V858.048ZM-130.27 810.429H-82.9684V857.143H-130.27V810.429ZM-130.27 762.81H-82.9684V809.524H-130.27V762.81ZM-130.27 715.19H-82.9684V761.904H-130.27V715.19ZM-130.27 667.572H-82.9684V714.285H-130.27V667.572ZM-130.27 619.953H-82.9684V666.667H-130.27V619.953ZM-130.27 572.333H-82.9684V619.047H-130.27V572.333ZM-130.27 524.714H-82.9684V571.428H-130.27V524.714ZM-130.27 477.096H-82.9684V523.81H-130.27V477.096ZM-130.27 429.476H-82.9684V476.19H-130.27V429.476ZM-130.27 381.857H-82.9684V428.571H-130.27V381.857ZM-130.27 334.238H-82.9684V380.952H-130.27V334.238ZM-130.27 286.619H-82.9684V333.333H-130.27V286.619ZM-130.27 239H-82.9684V285.714H-130.27V239ZM-130.27 191.381H-82.9684V238.095H-130.27V191.381ZM158.063 238.095H110.762V191.381H158.063V238.095ZM158.063 285.714H134.413H110.762V239.001H158.063V285.714ZM158.063 333.333H110.762V286.619H134.413H158.063V333.333ZM158.063 380.952H134.413H110.762V334.238H158.063V380.952ZM158.063 428.571H110.762V381.857H134.413H158.063V428.571ZM158.063 476.19H110.762V429.476H158.063V476.19ZM158.063 523.809H110.762V477.096H158.063V523.809ZM158.063 571.428H110.762V524.714H158.063V571.428ZM158.063 619.047H110.762V572.333H158.063V619.047ZM158.063 666.667H110.762V619.953H158.063V666.667ZM158.063 714.286H110.762V667.572H158.063V714.286ZM158.063 761.904H110.762V715.191H158.063V761.904ZM158.063 809.524H110.762V762.81H158.063V809.524ZM158.063 857.143H110.762V810.429H158.063V857.143ZM158.063 904.762H110.762V858.048H158.063V904.762ZM158.063 952.381H110.762V905.667H158.063V952.381ZM158.063 1000H110.762V953.286H158.063V1000ZM-82.0635 953.286H-34.762V1000H-82.0635V953.286ZM-82.0635 905.667H-58.4127L-34.762 905.667V952.381H-82.0635V905.667ZM-82.0635 858.048H-34.762V904.762H-58.4127L-82.0635 904.761V858.048ZM-82.0635 810.429H-34.762V857.143H-82.0635V810.429ZM-82.0635 762.81H-34.762V809.524H-82.0635V762.81ZM-82.0635 715.19H-34.762V761.904H-82.0635V715.19ZM-82.0635 667.572H-34.762V714.285H-82.0635V667.572ZM-82.0635 619.953H-34.762V666.667H-82.0635V619.953ZM-82.0635 572.333H-34.762V619.047H-82.0635V572.333ZM-82.0635 524.714H-34.762V571.428H-82.0635V524.714ZM-82.0635 477.096H-34.762V523.81H-82.0635V477.096ZM-82.0635 429.476H-34.762V476.19H-82.0635V429.476ZM-82.0635 381.857H-34.762V428.571H-82.0635V381.857ZM-82.0635 334.238H-34.762V380.952H-82.0635V334.238ZM-82.0635 286.619H-34.762V333.333H-82.0635V286.619ZM-82.0635 239H-34.762V285.714H-82.0635V239ZM109.857 285.714H62.5555V239H109.857V285.714ZM109.857 333.333H62.5555V286.619H109.857V333.333ZM109.857 380.952H62.5555V334.238H109.857V380.952ZM109.857 428.571H62.5555V381.857H109.857V428.571ZM109.857 476.19H86.2063H62.5555V429.476H109.857V476.19ZM109.857 523.809H62.5555V477.095H86.2063H109.857V523.809ZM109.857 571.428H62.5555V524.714H109.857V571.428ZM109.857 619.047H62.5555V572.333H109.857V619.047ZM109.857 666.667H62.5555V619.953H109.857V666.667ZM109.857 714.286H62.5555V667.572H109.857V714.286ZM109.857 761.904H62.5555V715.191H109.857V761.904ZM109.857 809.524H62.5555V762.81H109.857V809.524ZM109.857 857.143H62.5555V810.429H109.857V857.143ZM109.857 904.762H62.5555V858.048H109.857V904.762ZM109.857 952.381H62.5555V905.667H109.857V952.381ZM-33.8573 905.667H13.4442V952.381H-33.8573V905.667ZM-33.8573 858.048H13.4442V904.762H-33.8573V858.048ZM-33.8573 810.429H13.4442V857.143H-33.8573V810.429ZM-33.8573 762.81H13.4442V809.524H-33.8573V762.81ZM-33.8573 715.19H-10.2066L13.4442 715.191V761.904H-33.8573V715.19ZM-33.8573 667.572H13.4442V714.286H-10.2066L-33.8573 714.285V667.572ZM-33.8573 619.953H13.4442V666.667H-33.8573V619.953ZM-33.8573 572.333H13.4442V619.047H-33.8573V572.333ZM-33.8573 524.714H13.4442V571.428H-33.8573V524.714ZM-33.8573 477.096H13.4442V523.81H-33.8573V477.096ZM-33.8573 429.476H13.4442V476.19H-33.8573V429.476ZM-33.8573 381.857H13.4442V428.571H-33.8573V381.857ZM-33.8573 334.238H13.4442V380.952H-33.8573V334.238ZM-33.8573 286.619H13.4442V333.333H-33.8573V286.619ZM61.6506 333.333H14.3491V286.619H61.6506V333.333ZM61.6506 380.952H14.3491V334.238H61.6506V380.952ZM61.6506 428.571H14.3491V381.857H61.6506V428.571ZM61.6506 476.19H14.3491V429.476H61.6506V476.19ZM61.6506 523.809H14.3491V477.095H61.6506V523.809ZM61.6506 571.428H37.9998H14.3491V524.714H61.6506V571.428ZM61.6506 619.047H14.3491V572.333H37.9998H61.6506V619.047ZM61.6506 666.667H14.3491V619.953H61.6506V666.667ZM61.6506 714.286H14.3491V667.572H61.6506V714.286ZM61.6506 761.904H14.3491V715.191H61.6506V761.904ZM61.6506 809.524H14.3491V762.81H61.6506V809.524ZM61.6506 857.143H14.3491V810.429H61.6506V857.143ZM61.6506 904.762H14.3491V858.048H61.6506V904.762ZM14.3491 905.667H61.6506V952.381H14.3491V905.667ZM61.6506 285.714H14.3491V239H61.6506V285.714ZM13.4442 285.714H-33.8573V239H13.4442V285.714ZM-33.8573 953.286H13.4442V1000H-33.8573V953.286ZM14.3491 953.286H61.6506V1000H14.3491V953.286ZM62.5555 953.286H109.857V1000H62.5555V953.286ZM109.857 238.095H62.5555V191.381H109.857V238.095ZM61.6506 238.095H14.3491V191.381H61.6506V238.095ZM13.4442 238.095H-33.8573V191.381H13.4442V238.095ZM-34.7623 238.095H-82.0638V191.381H-34.7623V238.095ZM-82.0635 1000.9H-34.762V1047.62H-82.0635V1000.9ZM-33.8573 1000.9H13.4442V1047.62H-33.8573V1000.9ZM14.3491 1000.9H61.6506V1047.62H14.3491V1000.9ZM62.5555 1000.9H109.857V1047.62H62.5555V1000.9ZM110.762 1000.9H158.063V1047.62H110.762V1000.9ZM158.063 190.476H110.762V143.762H158.063V190.476ZM109.857 190.476H62.5555V143.762H109.857V190.476ZM61.6506 190.476H14.3491V143.762H61.6506V190.476ZM13.4442 190.476H-33.8573V143.762H13.4442V190.476ZM-34.7623 190.476H-82.0638V143.762H-34.7623V190.476ZM-82.9684 190.476H-130.27V143.762H-82.9684V190.476ZM-130.27 1095.24V1048.52H-82.9684V1095.24H-106.619L-130.27 1095.24ZM-82.0635 1048.52H-34.762V1095.24H-82.0635V1048.52ZM-33.8573 1048.52H13.4442V1095.24H-33.8573V1048.52ZM14.3491 1048.52H61.6506V1095.24H14.3491V1048.52ZM62.5555 1048.52H109.857V1095.24H62.5555V1048.52ZM110.762 1048.52H158.063V1095.24H110.762V1048.52ZM158.968 1048.52H206.27V1095.24H158.968V1048.52ZM206.27 142.857H158.968V96.143H206.27V142.857ZM158.063 142.857H110.762V96.143H158.063V142.857ZM109.857 142.857H62.5555V96.143H109.857V142.857ZM61.6506 142.857H14.3491V96.143H61.6506V142.857ZM13.4442 142.857H-33.8573V96.143H13.4442V142.857ZM-34.7623 142.857H-82.0638V96.143H-34.7623V142.857ZM-82.9684 142.857H-130.27V96.143H-82.9684V142.857ZM-131.175 142.857H-178.476V96.143H-131.175V142.857ZM-178.476 1096.14H-131.175V1142.86H-178.476V1096.14ZM-130.27 1096.14H-106.619L-82.9684 1096.14V1142.86H-130.27V1096.14ZM-82.0635 1096.14H-34.762V1142.86H-82.0635V1096.14ZM-33.8573 1096.14H13.4442V1142.86H-33.8573V1096.14ZM14.3491 1096.14H61.6506V1142.86H14.3491V1096.14ZM62.5555 1096.14H109.857V1142.86H62.5555V1096.14ZM110.762 1096.14H158.063V1142.86H110.762V1096.14ZM158.968 1096.14H206.27V1142.86H158.968V1096.14ZM207.175 1096.14H254.476V1142.86H207.175V1096.14ZM254.476 95.2382H230.825H207.175V48.5242H254.476V95.2382ZM206.27 95.2379H158.968V48.5242H206.27V95.2382V95.2379ZM158.063 95.2379H110.762V48.5242H158.063V95.2382V95.2379ZM109.857 95.2379H62.5555V48.5242H109.857V95.2382V95.2379ZM61.6506 95.2379H14.3491V48.5242H61.6506V95.2382V95.2379ZM13.4442 95.2379H-33.8573V48.5242H13.4442V95.2382V95.2379ZM-34.7623 95.2379H-82.0638V48.5242H-34.7623V95.2382V95.2379ZM-82.9684 95.2379H-130.27V48.5242H-82.9684V95.2382V95.2379ZM-131.175 95.2379H-178.476V48.5242H-131.175V95.2382V95.2379ZM-179.381 95.2379H-226.683V48.5242H-179.381V95.2382V95.2379ZM-226.682 1143.76H-179.381V1190.48H-226.682V1143.76ZM-178.476 1143.76H-131.175V1190.48H-178.476V1143.76ZM-130.27 1143.76H-82.9684V1190.48H-130.27V1143.76ZM-82.0635 1143.76H-34.762V1190.48H-82.0635V1143.76ZM-33.8573 1143.76H13.4442V1190.48H-33.8573V1143.76ZM14.3491 1143.76H61.6506V1190.48H14.3491V1143.76ZM62.5555 1143.76H109.857V1190.48H62.5555V1143.76ZM110.762 1143.76H158.063V1190.48H110.762V1143.76ZM158.968 1143.76H206.27V1190.48H158.968V1143.76ZM207.175 1143.76H254.476V1190.48H207.175V1143.76ZM255.381 1143.76H302.682V1190.48H255.381V1143.76ZM302.682 0.905117V47.6191H255.381V0.905421H302.682V0.905117ZM254.476 0.905117V47.6191H207.175V0.905117H254.476ZM158.968 0.905117H206.27V47.6191H158.968V0.905117ZM110.762 0.905117H158.063V47.6191H110.762V0.905117ZM62.5555 0.905117H109.857V47.6191H62.5555V0.905117ZM14.3491 0.905117H61.6506V47.6191H14.3491V0.905117ZM-33.8573 0.905117H13.4442V47.6191H-33.8573V0.905117ZM-82.0635 0.905117H-34.762V47.6191H-82.0635V0.905117ZM-130.27 0.905117H-82.9684V47.6191H-130.27V0.905117ZM-178.476 0.905117H-131.175V47.6191H-178.476V0.905117ZM-226.682 0.905117H-179.381V47.6191H-226.682V0.905117ZM-274.889 0.905117H-227.587V47.6191H-274.889V0.905117ZM-323.095 0.905117H-275.794V47.6191H-323.095V0.905117ZM-323.095 48.5242H-275.794V95.2382H-323.095V48.5242ZM-323.095 96.143H-275.794V142.857H-323.095V96.143ZM-323.095 143.762H-275.794V190.476H-323.095V143.762ZM-323.095 191.381H-275.794V238.095H-323.095V191.381ZM-323.095 239H-275.794V285.714H-323.095V239ZM-323.095 286.619H-275.794V333.333H-323.095V286.619ZM-323.095 334.238H-275.794V380.952H-323.095V334.238ZM-323.095 381.857H-275.794V428.571H-323.095V381.857ZM-323.095 429.476H-275.794V476.19H-323.095V429.476ZM-323.095 477.096H-275.794V523.81H-323.095V477.096ZM-323.095 524.714H-275.794V571.428H-323.095V524.714ZM-323.095 572.333H-275.794V619.047H-323.095V572.333ZM-323.095 619.953H-275.794V666.667H-323.095V619.953ZM-323.095 667.572H-275.794V714.285H-323.095V667.572ZM-323.095 715.19H-275.794V761.904H-323.095V715.19ZM-323.095 762.81H-275.794V809.524H-323.095V762.81ZM-323.095 810.429H-275.794V857.143H-323.095V810.429ZM-323.095 858.048H-275.794V904.761H-323.095V858.048ZM-323.095 905.667H-275.794V952.381H-323.095V905.667ZM-323.095 953.286H-275.794V1000H-323.095V953.286ZM-323.095 1000.9H-275.794V1047.62H-323.095V1000.9ZM-323.095 1048.52H-275.794V1095.24H-323.095V1048.52ZM-323.095 1096.14H-275.794V1142.86H-323.095V1096.14ZM-323.095 1143.76H-275.794V1190.48H-323.095V1143.76ZM-275.794 1238.09H-323.095V1191.38H-275.794V1238.09H-275.794ZM-227.587 1238.09H-274.889V1191.38H-227.587V1238.09ZM-179.381 1238.09H-226.683V1191.38H-179.381V1238.09ZM-131.175 1238.09H-178.476V1191.38H-131.175V1238.09ZM-82.9684 1238.09H-130.27V1191.38H-82.9684V1238.09ZM-34.7623 1238.09H-82.0638V1191.38H-34.7623V1238.09ZM13.4442 1238.09H-33.8573V1191.38H13.4442V1238.09ZM61.6506 1238.09H14.3491V1191.38H61.6506V1238.09ZM109.857 1238.09H62.5555V1191.38H109.857V1238.09ZM158.063 1238.09H110.762V1191.38H158.063V1238.09ZM206.27 1238.09H158.968V1191.38H206.27V1238.09ZM254.476 1238.09H207.175V1191.38H254.476V1238.09ZM302.682 1238.09H255.381V1191.38H302.682V1238.09ZM350.889 1238.09H303.587V1191.38H350.889V1238.09ZM399.095 1238.09H351.794V1191.38H399.095V1238.09ZM399.095 1190.48H351.794V1143.76H399.095V1190.48ZM399.095 1142.86H351.794V1096.14H399.095V1142.86ZM399.095 1095.24H351.794V1048.52H399.095V1095.24ZM399.095 1047.62H351.794V1000.9H399.095V1047.62ZM399.095 1000H351.794V953.286H399.095V1000ZM399.095 952.381H351.794V905.667H399.095V952.381ZM399.095 904.762H351.794V858.048H399.095V904.762ZM399.095 857.143H351.794V810.429H399.095V857.143ZM399.095 809.524H351.794V762.81H399.095V809.524ZM399.095 761.904H351.794V715.191H399.095V761.904ZM399.095 714.286H351.794V667.572H399.095V714.286ZM399.095 666.667H351.794V619.953H399.095V666.667ZM399.095 619.047H351.794V572.333H399.095V619.047ZM399.095 571.428H351.794V524.714H399.095V571.428ZM399.095 523.809H351.794V477.096H399.095V523.809ZM399.095 476.19H351.794V429.476H399.095V476.19ZM399.095 428.571H351.794V381.858H399.095V428.571ZM399.095 380.952H351.794V334.238H399.095V380.952ZM399.095 333.333H351.794V286.619H399.095V333.333ZM399.095 285.714H351.794V239H399.095V285.714ZM399.095 238.095H351.794V191.381H399.095V238.095ZM399.095 190.476H351.794V143.762H399.095V190.476ZM399.095 142.857H351.794V96.143H399.095V142.857ZM399.095 95.2382H351.794V48.5242H399.095V95.2382ZM351.794 47.6191V0.905421H399.095V47.6191H351.794Z" fill="url(#paint0_radial_13_897)"/>
<defs>
<radialGradient id="paint0_radial_13_897" cx="0" cy="0" r="1" gradientUnits="userSpaceOnUse" gradientTransform="translate(66.5 620) scale(333.5 619)">
<stop stop-color="#371E51"/>
<stop offset="1"/>
</radialGradient>
</defs>
</svg>
