<svg width="420" height="119" viewBox="0 0 420 119" fill="none" xmlns="http://www.w3.org/2000/svg">
<path d="M0.34552 1.21256H13.7655V61.2498H0.34552V1.21256ZM37.7169 14.248H16.7232V1.21256H72.2136V14.248H51.1369V61.2498H37.7169V14.248ZM100.049 1.21256H145.726V14.248H113.469V23.5905H144.441V36.5432H113.469V48.2971H145.726V61.2498H100.049V1.21256ZM175.275 62.1868C166.734 62.1868 160.197 60.0234 155.664 55.7104C151.13 51.3974 148.808 44.9486 148.698 36.364V1.19881H162.118V36.5432C162.118 39.8089 162.519 42.3443 163.32 44.177C164.122 46.0097 165.476 47.3187 167.37 48.1179C169.263 48.9171 171.931 49.3167 175.372 49.3167C178.813 49.3167 181.453 48.9309 183.291 48.1593C185.129 47.3876 186.429 46.0924 187.203 44.2597C187.977 42.427 188.364 39.8502 188.364 36.5432V1.19881H201.866V36.4467C201.866 44.9624 199.531 51.3837 194.859 55.6966C190.188 60.0096 183.665 62.173 175.289 62.173L175.275 62.1868ZM204.741 61.0706V1.19881H229.259C236.432 1.19881 242.403 2.63185 247.199 5.48421C251.981 8.33656 254.385 13.1181 254.385 19.8011C254.385 23.2322 253.612 26.2775 252.064 28.9369C250.516 31.5963 248.249 33.7597 245.264 35.4132L259.886 61.236H244.31L232.093 38.7616C230.71 38.8719 229.715 38.927 229.08 38.927H218.147V61.3187L204.727 61.0569L204.741 61.0706ZM229.605 25.9881C232.88 25.9881 235.285 25.8227 236.833 25.4782C238.381 25.1338 239.418 24.5412 239.929 23.6731C240.44 22.8188 240.703 21.5235 240.703 19.8149C240.703 18.2164 240.426 17.0314 239.887 16.2598C239.348 15.4881 238.257 14.937 236.612 14.5925C234.981 14.248 232.466 14.0826 229.08 14.0826H218.147V26.0019H229.591L229.605 25.9881ZM286.339 62.1868C280.092 62.1868 274.591 60.9466 269.865 58.4525C265.138 55.9722 261.448 52.3758 258.808 47.6908C256.168 43.0057 254.855 37.4801 254.855 31.1416C254.855 24.803 256.168 19.1948 258.808 14.496C261.448 9.79719 265.152 6.21453 269.906 3.73423C274.661 1.24014 280.147 0 286.339 0C292.531 0 298.184 1.24014 302.938 3.73423C307.692 6.22831 311.396 9.7972 314.036 14.4547C316.676 19.1121 317.989 24.6239 317.989 30.9625C317.989 37.3011 316.69 42.9231 314.077 47.6494C311.465 52.362 307.789 55.9722 303.021 58.4525C298.266 60.9466 292.697 62.1868 286.325 62.1868H286.339ZM286.339 49.3305C292.531 49.3305 297.078 47.8286 299.98 44.8246C302.883 41.8207 304.32 37.2597 304.32 31.1416C304.32 25.0235 302.855 20.3661 299.939 17.3346C297.009 14.3031 292.489 12.7874 286.353 12.7874C280.217 12.7874 275.766 14.2893 272.85 17.2932C269.92 20.2972 268.469 24.9133 268.469 31.1416C268.469 37.3699 269.92 41.8896 272.809 44.866C275.711 47.8423 280.217 49.3305 286.353 49.3305H286.339ZM320.96 1.21256H345.824C353.163 1.21256 359.216 2.6732 363.971 5.58067C368.725 8.50192 371.116 13.5039 371.116 20.5865C371.116 27.2696 368.808 32.2715 364.192 35.551C359.576 38.8443 353.398 40.4841 345.658 40.4841H334.394V61.236H320.974V1.19881L320.96 1.21256ZM345.644 27.6278C349.086 27.6278 351.642 27.4211 353.301 27.0215C354.959 26.6219 356.079 25.9468 356.659 25.0097C357.24 24.0727 357.516 22.6259 357.516 20.683C357.516 18.7401 357.226 17.4035 356.659 16.5216C356.093 15.6397 354.987 15.0058 353.342 14.6338C351.711 14.2618 349.113 14.0826 345.561 14.0826H334.38V27.6278H345.644ZM373.991 1.21256H419.668V14.248H387.411V23.5905H418.383V36.5432H387.411V48.2971H419.668V61.2498H373.991V1.21256Z" fill="url(#paint0_linear_4_5)"/>
<path d="M21.9751 118.379C14.9126 118.379 9.50872 116.602 5.76329 113.033C2.01785 109.464 0.0967455 104.131 0 97.0488V67.9879H11.0843V97.1866C11.0843 99.8736 11.416 101.982 12.0794 103.498C12.7428 105.013 13.8623 106.102 15.424 106.763C16.9858 107.425 19.1971 107.755 22.0303 107.755C24.8636 107.755 27.0611 107.439 28.5676 106.805C30.0879 106.171 31.1659 105.096 31.8017 103.58C32.4374 102.065 32.7553 99.9425 32.7553 97.2004V68.0017H43.9225V97.1315C43.9225 104.173 41.9876 109.478 38.1316 113.047C34.2756 116.616 28.8717 118.393 21.9613 118.393L21.9751 118.379ZM46.3273 109.588L72.5591 78.7497H46.7557V67.9741H88.9921V76.0489L62.6911 106.887H88.9921V117.594H46.3411V109.588H46.3273ZM91.4384 67.9879H112.059C119.08 67.9879 124.138 69.1041 127.234 71.3501C130.344 73.5962 131.892 77.2202 131.892 82.2359C131.892 85.9288 130.606 88.9465 128.05 91.3028C131.657 93.8106 133.454 97.352 133.454 101.941C133.454 106.763 131.712 110.58 128.229 113.391C124.746 116.202 119.633 117.608 112.902 117.608H91.4384V67.9879ZM112.695 107.039C115.487 107.039 117.56 106.901 118.914 106.612C120.269 106.322 121.167 105.826 121.609 105.124C122.065 104.421 122.286 103.374 122.286 102.009C122.286 100.783 122.051 99.8323 121.581 99.1709C121.112 98.5095 120.241 98.0272 118.983 97.724C117.725 97.4209 115.874 97.2693 113.4 97.2693H102.384V107.053H112.695V107.039ZM112.916 86.6315C115.1 86.6315 116.744 86.4938 117.864 86.2044C118.983 85.915 119.743 85.4878 120.172 84.8953C120.6 84.3028 120.808 83.4485 120.808 82.3048C120.808 81.2713 120.6 80.4859 120.172 79.9623C119.743 79.4387 118.914 79.0804 117.684 78.8599C116.454 78.6532 114.561 78.543 111.99 78.543H102.398V86.6178H112.916V86.6315ZM135.126 67.9879H172.87V78.7635H146.21V86.4937H171.806V97.2004H146.21V106.915H172.87V117.622H135.126V68.0017V67.9879ZM175.331 67.9879H186.415V86.5626L208.957 67.9879H225.168L201.424 87.8304L224.533 117.594H210.601L192.897 94.7752L186.429 99.9563V117.608H175.344V67.9879H175.331ZM227.836 67.9879H238.92V117.608H227.836V67.9879ZM263.562 118.379C255.698 118.379 249.977 116.74 246.397 113.46C242.817 110.181 241.214 105.468 241.601 99.3224L253.266 99.1158C253.266 101.472 253.611 103.277 254.303 104.504C254.994 105.73 256.058 106.584 257.495 107.053C258.946 107.521 260.964 107.755 263.576 107.755C266.99 107.755 269.547 107.342 271.261 106.515C272.961 105.689 273.817 104.421 273.817 102.726C273.817 101.637 273.652 100.852 273.32 100.356C272.988 99.8598 272.256 99.4327 271.122 99.0744C269.989 98.7161 268.068 98.3579 265.359 97.972L259.167 97.1177C253.39 96.3185 248.982 94.7477 245.941 92.4052C242.914 90.0626 241.394 86.5764 241.394 81.9465C241.394 77.3166 243.26 73.5686 246.978 70.9918C250.695 68.4151 255.878 67.0785 262.512 66.982C269.865 67.0233 275.282 68.6218 278.793 71.7635C282.303 74.9052 283.893 79.4249 283.561 85.3363L271.979 85.4052C271.979 82.3323 271.205 80.2379 269.671 79.1355C268.137 78.0194 265.774 77.4682 262.595 77.4682C255.961 77.4682 252.644 78.915 252.644 81.7949C252.644 82.8284 252.81 83.5863 253.142 84.0685C253.473 84.537 254.178 84.9366 255.242 85.2673C256.307 85.5981 258.076 85.9288 260.536 86.2595L267.004 87.1827C273.209 88.0784 277.826 89.7457 280.838 92.1847C283.851 94.6236 285.358 98.1512 285.358 102.781C285.358 105.95 284.501 108.706 282.801 111.035C281.101 113.378 278.613 115.183 275.365 116.464C272.118 117.746 268.22 118.379 263.673 118.379H263.604H263.562ZM302.275 78.7635H284.929V67.9879H330.787V78.7635H313.373V117.608H302.288V78.7635H302.275ZM342.617 67.9879H351.366L374.834 117.608H362.395L356.424 104.779H337.296L331.326 117.608H319.094L342.631 67.9879H342.617ZM351.642 94.1413L346.874 83.9997L342.258 94.1413H351.642ZM375.925 67.9879H385.241L408.985 98.2614V67.9879H420V117.608H410.754L386.872 87.5547V117.608H375.925V67.9879Z" fill="url(#paint1_radial_4_5)"/>
<defs>
<linearGradient id="paint0_linear_4_5" x1="53.5694" y1="24.7204" x2="320.828" y2="118.23" gradientUnits="userSpaceOnUse">
<stop stop-color="white"/>
<stop offset="0.44" stop-color="#977DFF"/>
<stop offset="1" stop-color="#E97AFF"/>
</linearGradient>
<radialGradient id="paint1_radial_4_5" cx="0" cy="0" r="1" gradientTransform="matrix(511.369 119.193 59.7749 -254.92 303.035 151.492)" gradientUnits="userSpaceOnUse">
<stop stop-color="#E97AFF"/>
<stop offset="0.36" stop-color="#977DFF"/>
<stop offset="1" stop-color="#0033FF"/>
</radialGradient>
</defs>
</svg>
