<?xml version="1.0" standalone="no"?>
<!DOCTYPE svg PUBLIC "-//W3C//DTD SVG 20010904//EN"
 "http://www.w3.org/TR/2001/REC-SVG-20010904/DTD/svg10.dtd">
<svg version="1.0" xmlns="http://www.w3.org/2000/svg"
 width="496.000000pt" height="496.000000pt" viewBox="0 0 496.000000 496.000000"
 preserveAspectRatio="xMidYMid meet">
<metadata>
Created by potrace 1.14, written by Peter Selinger 2001-2017
</metadata>
<g transform="translate(0.000000,496.000000) scale(0.100000,-0.100000)"
fill="#000000" stroke="none">
<path d="M462 4940 c-111 -29 -187 -74 -278 -165 -60 -60 -89 -99 -117 -155
-72 -148 -67 7 -67 -2141 0 -1895 0 -1937 20 -2013 29 -115 73 -189 165 -282
60 -60 99 -89 155 -117 148 -72 -7 -67 2141 -67 1895 0 1937 0 2013 20 115 29
189 73 282 165 60 60 89 99 117 155 72 148 67 -37 67 2413 l0 2207 -2212 -1
c-2146 0 -2215 -1 -2286 -19z m4088 -2212 c0 -1526 -3 -1834 -14 -1889 -39
-180 -182 -338 -364 -401 -61 -21 -84 -23 -271 -23 l-203 0 -29 80 c-37 102
-139 312 -219 452 -67 116 -255 404 -338 518 -44 59 -50 72 -39 86 6 10 71
104 143 211 297 437 501 822 612 1153 61 185 77 270 76 425 0 116 -3 143 -22
191 -126 316 -564 282 -1222 -93 -100 -57 -457 -292 -547 -359 l-42 -32 -53
38 c-29 20 -140 95 -246 166 -485 322 -929 539 -1257 613 l-100 23 -3 74 c-6
159 41 295 139 403 84 92 205 160 319 179 14 2 847 5 1853 6 l1827 1 0 -1822z
m-3360 548 c224 -52 424 -123 640 -228 l145 -70 -40 -33 c-22 -18 -96 -79
-165 -135 -251 -204 -601 -522 -590 -534 4 -3 60 33 125 81 657 472 1195 731
1556 750 176 9 275 -22 357 -111 80 -87 108 -191 99 -374 -9 -210 -110 -544
-252 -840 l-74 -153 -119 148 c-219 272 -573 665 -580 644 -2 -6 21 -45 51
-85 84 -112 256 -366 345 -512 168 -274 284 -510 357 -727 59 -178 77 -271 77
-397 0 -114 -13 -171 -56 -245 l-27 -45 -836 0 c-460 0 -834 2 -832 4 2 2 86
65 187 141 325 243 900 739 880 760 -4 4 -62 -33 -130 -82 -632 -459 -1164
-718 -1536 -749 -79 -7 -83 -6 -122 21 -55 38 -146 137 -171 188 -12 22 -31
66 -43 97 -20 54 -21 70 -24 764 l-3 709 87 -119 c160 -220 266 -353 468 -588
178 -207 360 -400 364 -388 2 6 -37 67 -85 134 -520 717 -796 1340 -744 1678
15 94 38 147 92 205 50 55 118 91 203 111 87 20 264 11 396 -20z"/>
</g>
</svg>
