<svg width="240" height="50" viewBox="0 0 240 50" fill="none" xmlns="http://www.w3.org/2000/svg">
<path d="M59.3521 35.4705C59.1005 35.4705 58.8611 35.4396 58.634 35.3716C58.4008 35.3036 58.1982 35.1921 58.0264 35.0375C57.8544 34.8828 57.7317 34.6787 57.6581 34.425H58.0386C58.1184 34.6045 58.2227 34.753 58.3639 34.8581C58.505 34.9632 58.6586 35.0437 58.8365 35.0869C59.0083 35.1365 59.1801 35.1612 59.352 35.1612C59.5423 35.1612 59.7263 35.1303 59.9043 35.0685C60.0823 35.0127 60.2234 34.92 60.3338 34.7961C60.4444 34.6724 60.4997 34.5116 60.4997 34.3075C60.4997 34.1466 60.469 34.0168 60.4077 33.9177C60.34 33.8188 60.2541 33.7382 60.1499 33.6764C60.0395 33.6207 59.9105 33.5713 59.7693 33.5279C59.665 33.4969 59.5545 33.4662 59.4441 33.4352C59.3336 33.4104 59.2292 33.3857 59.125 33.3547C59.0206 33.3238 58.9163 33.2928 58.8242 33.2619C58.6954 33.2249 58.5727 33.1815 58.4499 33.1258C58.321 33.0701 58.2105 33.002 58.1185 32.9217C58.0204 32.8412 57.9405 32.736 57.8854 32.6185C57.8239 32.5009 57.7935 32.3524 57.7935 32.1792C57.7935 31.9997 57.818 31.8452 57.8732 31.7152C57.9284 31.5853 58.002 31.4739 58.1003 31.3811C58.1985 31.2885 58.309 31.214 58.4378 31.1584C58.5668 31.1027 58.7017 31.0656 58.8489 31.0346C58.9901 31.0099 59.1373 30.9974 59.2909 30.9974C59.524 30.9974 59.7451 31.0284 59.9476 31.0965C60.1501 31.1645 60.322 31.2697 60.4631 31.4181C60.6042 31.5666 60.6963 31.7645 60.7331 32.0183H60.3772C60.3341 31.8388 60.2606 31.7027 60.1501 31.5976C60.0335 31.4925 59.9046 31.4181 59.7511 31.3749C59.5978 31.3315 59.4443 31.3068 59.2846 31.3068C59.1559 31.3068 59.0269 31.3192 58.8981 31.3439C58.7692 31.3749 58.6464 31.4181 58.5359 31.4801C58.4255 31.5419 58.3335 31.6224 58.2658 31.7276C58.1984 31.8327 58.1616 31.9687 58.1616 32.1297C58.1616 32.2904 58.1985 32.4204 58.2658 32.5256C58.3335 32.6308 58.4194 32.7112 58.5298 32.7732C58.6342 32.835 58.7569 32.8906 58.892 32.934C59.0701 32.9897 59.2602 33.0391 59.4505 33.0825C59.6407 33.1257 59.8249 33.1814 59.9966 33.237C60.1195 33.2743 60.236 33.3237 60.3402 33.3794C60.4446 33.4412 60.5366 33.5156 60.6165 33.5959C60.6963 33.6764 60.7576 33.7691 60.8005 33.8744C60.8436 33.9794 60.8681 34.1033 60.8681 34.2331C60.8681 34.4621 60.8252 34.6538 60.7453 34.8086C60.6594 34.9632 60.5427 35.0931 60.4017 35.1921C60.2605 35.291 60.0948 35.3592 59.9169 35.4026C59.7388 35.452 59.5485 35.4705 59.3522 35.4705H59.3521ZM61.807 35.4211V31.047H62.1569V35.4211H61.807ZM63.2738 35.4211V31.047H63.7525L66.3671 34.9757V31.047H66.7169V35.4211H66.2567L63.6238 31.4924V35.4211H63.2739H63.2738ZM69.5768 35.4705C69.135 35.4705 68.7668 35.3716 68.4784 35.1798C68.1837 34.9881 67.9628 34.7283 67.8216 34.3941C67.6744 34.0662 67.6007 33.6949 67.5946 33.2805C67.5884 32.9587 67.6315 32.6617 67.7112 32.3832C67.7909 32.1111 67.9076 31.8697 68.0734 31.6593C68.2391 31.4553 68.4416 31.2882 68.6932 31.1707C68.9387 31.0531 69.2272 30.9973 69.5587 30.9973C69.8286 30.9973 70.0741 31.0345 70.3011 31.1088C70.5222 31.1892 70.7124 31.3005 70.878 31.4553C71.0377 31.6099 71.1605 31.8017 71.2464 32.043H70.8476C70.7799 31.8821 70.6817 31.746 70.553 31.6346C70.424 31.5294 70.2705 31.4427 70.0986 31.3871C69.9269 31.3314 69.7488 31.3067 69.5648 31.3067C69.2823 31.3067 69.037 31.3561 68.8345 31.4614C68.6318 31.5665 68.4661 31.7087 68.3374 31.8882C68.2084 32.0677 68.1101 32.2781 68.0549 32.5069C67.9936 32.7419 67.9629 32.9896 67.9629 33.2556C67.9629 33.602 68.0183 33.9175 68.1349 34.2083C68.2453 34.4991 68.4232 34.7282 68.6625 34.9013C68.9019 35.0746 69.2027 35.1611 69.5769 35.1611C69.8899 35.1611 70.16 35.0993 70.3811 34.9693C70.5957 34.8456 70.7676 34.6662 70.8841 34.4372C71.0008 34.2083 71.0622 33.9362 71.0683 33.6268H69.5769V33.3113H71.3937V33.5958C71.3937 33.967 71.3199 34.2949 71.1725 34.5734C71.0253 34.858 70.8168 35.0807 70.5466 35.2353C70.2705 35.39 69.9513 35.4703 69.5769 35.4703L69.5768 35.4705ZM72.2712 35.4211V31.047H72.6211V35.0994H75.1068V35.421H72.2712V35.4211ZM75.7694 35.4211V31.047H78.6049V31.3686H76.1193V33.0885H78.3532V33.4102H76.1193V35.0993H78.6049V35.4209H75.7694V35.4211ZM81.1395 35.4211V31.047H81.4895V35.4211H81.1395ZM82.6064 35.4211V31.047H83.0851L85.6997 34.9757V31.047H86.0495V35.4211H85.5892L82.9564 31.4924V35.4211H82.6065H82.6064ZM88.1729 35.4211V31.3687H86.7185V31.0471H89.9773V31.3687H88.5229V35.4211H88.173H88.1729ZM90.6464 35.4211V31.047H93.4819V31.3686H90.9962V33.0885H93.23V33.4102H90.9962V35.0993H93.4819V35.4209H90.6464V35.4211ZM96.1024 35.4705C95.6605 35.4705 95.2923 35.3716 95.0039 35.1798C94.7093 34.9881 94.4883 34.7283 94.3472 34.3941C94.1999 34.0662 94.1262 33.6949 94.1201 33.2805C94.114 32.9587 94.1571 32.6617 94.2367 32.3832C94.3165 32.1111 94.433 31.8697 94.5989 31.6593C94.7646 31.4553 94.9671 31.2882 95.2187 31.1707C95.4643 31.0531 95.7528 30.9973 96.0842 30.9973C96.3541 30.9973 96.5996 31.0345 96.8267 31.1088C97.0477 31.1892 97.2379 31.3005 97.4036 31.4553C97.5632 31.6099 97.6861 31.8017 97.7719 32.043H97.3731C97.3055 31.8821 97.2072 31.746 97.0784 31.6346C96.9495 31.5294 96.796 31.4427 96.6242 31.3871C96.4524 31.3314 96.2743 31.3067 96.0903 31.3067C95.8079 31.3067 95.5625 31.3561 95.3601 31.4614C95.1573 31.5665 94.9917 31.7087 94.8629 31.8882C94.734 32.0677 94.6357 32.2781 94.5804 32.5069C94.5191 32.7419 94.4884 32.9896 94.4884 33.2556C94.4884 33.602 94.5438 33.9175 94.6604 34.2083C94.7708 34.4991 94.9488 34.7282 95.188 34.9013C95.4274 35.0746 95.7282 35.1611 96.1025 35.1611C96.4154 35.1611 96.6855 35.0993 96.9067 34.9693C97.1213 34.8456 97.2932 34.6662 97.4097 34.4372C97.5263 34.2083 97.5878 33.9362 97.5939 33.6268H96.1025V33.3113H97.9191V33.5958C97.9191 33.967 97.8455 34.2949 97.6981 34.5734C97.5509 34.858 97.3422 35.0807 97.0722 35.2353C96.796 35.39 96.4769 35.4703 96.1025 35.4703L96.1024 35.4705ZM98.7968 35.4211V31.047H100.392C100.619 31.047 100.828 31.0717 101.018 31.1149C101.202 31.1644 101.362 31.2387 101.497 31.3439C101.626 31.449 101.73 31.5852 101.804 31.7524C101.872 31.9255 101.908 32.1359 101.908 32.3773C101.908 32.6062 101.865 32.8042 101.786 32.9711C101.706 33.1383 101.583 33.2807 101.43 33.3919C101.276 33.5032 101.092 33.5837 100.877 33.6332L101.822 35.4212H101.436L100.515 33.695H99.1466V35.4212H98.7968V35.4211ZM99.1466 33.3794H100.221C100.392 33.3794 100.558 33.367 100.718 33.3361C100.877 33.3114 101.019 33.2618 101.147 33.1876C101.27 33.1134 101.368 33.0081 101.442 32.8722C101.51 32.7421 101.546 32.569 101.546 32.3586C101.552 32.1049 101.503 31.9008 101.399 31.7585C101.295 31.6161 101.147 31.511 100.969 31.4554C100.785 31.3996 100.571 31.3687 100.331 31.3687H99.1467V33.3795L99.1466 33.3794ZM102.344 35.4211L104.02 31.047H104.468L106.155 35.4211H105.763L105.382 34.4373H103.105L102.731 35.4211H102.344H102.344ZM103.222 34.1218H105.265L104.247 31.4119L103.222 34.1218Z" fill="white"/>
<path d="M107.497 35.421V31.3686H106.043V31.0469H109.302V31.3686H107.847V35.421H107.497Z" fill="white"/>
<path d="M111.683 35.4705C111.235 35.4705 110.86 35.3716 110.56 35.1798C110.259 34.988 110.032 34.722 109.878 34.3816C109.725 34.0477 109.651 33.664 109.651 33.237C109.651 32.8102 109.731 32.4265 109.884 32.0863C110.038 31.7461 110.265 31.4801 110.566 31.2882C110.866 31.0964 111.235 30.9973 111.683 30.9973C112.131 30.9973 112.505 31.0964 112.806 31.2882C113.107 31.4862 113.328 31.7522 113.481 32.0863C113.634 32.4266 113.708 32.8103 113.708 33.237C113.708 33.664 113.634 34.0414 113.481 34.3816C113.328 34.722 113.101 34.9879 112.8 35.1798C112.499 35.3716 112.131 35.4705 111.683 35.4705ZM111.683 35.1612C112.057 35.1612 112.37 35.0746 112.616 34.9014C112.861 34.7282 113.045 34.493 113.162 34.2021C113.278 33.9114 113.34 33.5896 113.34 33.237C113.34 32.9709 113.309 32.7236 113.242 32.4885C113.174 32.2596 113.07 32.0553 112.935 31.876C112.8 31.6966 112.628 31.5604 112.419 31.4553C112.21 31.3562 111.965 31.3068 111.683 31.3068C111.308 31.3068 110.995 31.3934 110.75 31.5729C110.498 31.7524 110.314 31.9813 110.197 32.2721C110.075 32.5628 110.013 32.8845 110.013 33.2371C110.013 33.5837 110.075 33.9054 110.197 34.1962C110.32 34.4869 110.504 34.7221 110.756 34.8953C111.001 35.0748 111.308 35.1614 111.683 35.1614L111.683 35.1612ZM114.586 35.421V31.0468H116.181C116.408 31.0468 116.617 31.0716 116.807 31.1148C116.991 31.1643 117.151 31.2385 117.286 31.3438C117.415 31.4489 117.519 31.585 117.593 31.7522C117.66 31.9254 117.697 32.1358 117.697 32.3771C117.697 32.606 117.654 32.804 117.574 32.971C117.495 33.1382 117.372 33.2805 117.219 33.3917C117.065 33.5031 116.881 33.5836 116.666 33.6331L117.611 35.4211H117.225L116.304 33.6949H114.936V35.4211H114.586V35.421ZM114.936 33.3792H116.01C116.182 33.3792 116.347 33.3669 116.507 33.336C116.666 33.3112 116.808 33.2616 116.936 33.1875C117.059 33.1132 117.157 33.008 117.231 32.872C117.299 32.742 117.335 32.5689 117.335 32.3584C117.341 32.1048 117.292 31.9006 117.188 31.7584C117.084 31.6159 116.936 31.5109 116.758 31.4552C116.574 31.3995 116.359 31.3686 116.12 31.3686H114.936V33.3793L114.936 33.3792ZM120.263 35.421V31.0468H123.098V31.3685H120.613V33.243H122.754V33.5648H120.613V35.4209H120.263V35.421ZM125.7 35.4704C125.252 35.4704 124.878 35.3715 124.577 35.1797C124.276 34.9879 124.049 34.7219 123.896 34.3815C123.743 34.0476 123.669 33.6639 123.669 33.2369C123.669 32.8101 123.749 32.4264 123.902 32.0862C124.056 31.746 124.283 31.48 124.583 31.2881C124.884 31.0963 125.252 30.9972 125.7 30.9972C126.148 30.9972 126.523 31.0963 126.824 31.2881C127.124 31.4861 127.345 31.7521 127.499 32.0862C127.652 32.4265 127.726 32.8102 127.726 33.2369C127.726 33.6639 127.652 34.0413 127.499 34.3815C127.345 34.7219 127.118 34.9878 126.817 35.1797C126.517 35.3715 126.148 35.4704 125.7 35.4704ZM125.7 35.1611C126.075 35.1611 126.388 35.0745 126.633 34.9013C126.879 34.7281 127.063 34.4929 127.179 34.202C127.296 33.9113 127.358 33.5895 127.358 33.2369C127.358 32.9708 127.327 32.7235 127.259 32.4884C127.192 32.2595 127.087 32.0552 126.952 31.8759C126.817 31.6965 126.645 31.5603 126.437 31.4552C126.228 31.3561 125.983 31.3067 125.7 31.3067C125.326 31.3067 125.013 31.3933 124.767 31.5728C124.516 31.7523 124.332 31.9812 124.215 32.272C124.092 32.5627 124.031 32.8844 124.031 33.237C124.031 33.5836 124.092 33.9053 124.215 34.1961C124.338 34.4868 124.522 34.722 124.773 34.8952C125.019 35.0747 125.326 35.1613 125.7 35.1613L125.7 35.1611ZM128.603 35.4209V31.0467H130.199C130.426 31.0467 130.635 31.0715 130.825 31.1147C131.009 31.1642 131.169 31.2384 131.304 31.3437C131.433 31.4488 131.537 31.5849 131.611 31.7521C131.678 31.9253 131.715 32.1357 131.715 32.377C131.715 32.6059 131.672 32.8039 131.592 32.9709C131.512 33.1381 131.39 33.2804 131.236 33.3916C131.083 33.503 130.899 33.5835 130.684 33.633L131.629 35.421H131.242L130.322 33.6948H128.953V35.421H128.603V35.4209ZM128.953 33.3791H130.027C130.199 33.3791 130.365 33.3668 130.524 33.3359C130.684 33.3111 130.825 33.2615 130.954 33.1874C131.077 33.1131 131.175 33.0079 131.249 32.8719C131.316 32.7419 131.353 32.5688 131.353 32.3583C131.359 32.1047 131.31 31.9005 131.206 31.7583C131.101 31.6158 130.954 31.5108 130.776 31.4551C130.592 31.3994 130.377 31.3685 130.138 31.3685H128.953V33.3792L128.953 33.3791ZM135.287 35.4209V31.3685H133.832V31.0468H137.091V31.3685H135.637V35.4209H135.287H135.287ZM137.76 35.4209V31.0467H138.11V33.1193H140.749V31.0467H141.099V35.4209H140.749V33.4349H138.11V35.4209H137.76ZM142.216 35.4209V31.0467H145.051V31.3684H142.566V33.0883H144.8V33.4099H142.566V35.0991H145.051V35.4207H142.216V35.4209ZM149.329 35.4703C148.881 35.4703 148.507 35.3714 148.218 35.1796C147.924 34.9878 147.703 34.7218 147.562 34.3814C147.42 34.0475 147.347 33.6638 147.347 33.2368C147.347 32.81 147.42 32.4327 147.568 32.0922C147.709 31.7583 147.93 31.4922 148.231 31.2941C148.525 31.0961 148.9 30.997 149.347 30.997C149.611 30.997 149.851 31.0343 150.072 31.1146C150.287 31.1952 150.477 31.3064 150.63 31.4612C150.784 31.6157 150.894 31.8076 150.968 32.0428H150.606C150.507 31.8014 150.348 31.6157 150.127 31.4922C149.9 31.3684 149.642 31.3065 149.354 31.3065C148.973 31.3065 148.66 31.3931 148.421 31.5726C148.175 31.7521 147.997 31.981 147.881 32.2718C147.764 32.5625 147.703 32.878 147.703 33.2247C147.703 33.5711 147.758 33.8928 147.875 34.1835C147.991 34.4805 148.169 34.7156 148.415 34.8951C148.654 35.0746 148.967 35.1612 149.341 35.1612C149.531 35.1612 149.71 35.1364 149.888 35.0808C150.065 35.0249 150.219 34.9445 150.354 34.8333C150.489 34.7219 150.587 34.5857 150.649 34.4249H151.047C150.968 34.6538 150.839 34.8456 150.673 35.0002C150.501 35.1549 150.299 35.2724 150.072 35.3529C149.845 35.4334 149.593 35.4704 149.329 35.4704L149.329 35.4703ZM151.888 35.4209V31.0467H153.484C153.711 31.0467 153.92 31.0715 154.11 31.1147C154.294 31.1642 154.453 31.2384 154.589 31.3437C154.717 31.4488 154.822 31.5849 154.895 31.7521C154.963 31.9253 155 32.1357 155 32.377C155 32.6059 154.957 32.8039 154.877 32.9709C154.797 33.1381 154.674 33.2804 154.521 33.3916C154.368 33.503 154.183 33.5835 153.969 33.633L154.914 35.421H154.527L153.607 33.6948H152.238V35.421H151.888V35.4209ZM152.238 33.3791H153.312C153.484 33.3791 153.65 33.3668 153.809 33.3359C153.969 33.3111 154.11 33.2615 154.239 33.1874C154.362 33.1131 154.46 33.0079 154.533 32.8719C154.601 32.7419 154.638 32.5688 154.638 32.3583C154.644 32.1047 154.595 31.9005 154.491 31.7583C154.386 31.6158 154.239 31.5108 154.061 31.4551C153.877 31.3994 153.662 31.3685 153.423 31.3685H152.238V33.3792L152.238 33.3791ZM155.908 35.4209V31.0467H158.744V31.3684H156.258V33.0883H158.492V33.4099H156.258V35.0991H158.744V35.4207H155.908V35.4209ZM159.149 35.4209L160.824 31.0467H161.272L162.96 35.4209H162.567L162.187 34.4371H159.91L159.535 35.4209H159.149H159.149ZM160.026 34.1216H162.07L161.051 31.4117L160.026 34.1216Z" fill="white"/>
<path d="M164.302 35.421V31.3686H162.848V31.047H166.106V31.3686H164.652V35.421H164.302H164.302ZM166.775 35.421V31.0469H167.125V35.421H166.775ZM170.034 35.4704C169.586 35.4704 169.212 35.3715 168.911 35.1797C168.611 34.988 168.383 34.7219 168.23 34.3816C168.077 34.0476 168.003 33.6639 168.003 33.2369C168.003 32.8101 168.083 32.4265 168.236 32.0862C168.39 31.746 168.617 31.48 168.917 31.2882C169.218 31.0964 169.586 30.9973 170.034 30.9973C170.483 30.9973 170.857 31.0964 171.158 31.2882C171.458 31.4862 171.679 31.7522 171.833 32.0862C171.986 32.4266 172.06 32.8102 172.06 33.2369C172.06 33.6639 171.986 34.0413 171.833 34.3816C171.679 34.7219 171.452 34.9879 171.151 35.1797C170.851 35.3715 170.483 35.4704 170.034 35.4704ZM170.034 35.1611C170.409 35.1611 170.722 35.0746 170.967 34.9013C171.213 34.7282 171.397 34.493 171.514 34.2021C171.63 33.9113 171.692 33.5896 171.692 33.2369C171.692 32.9708 171.661 32.7236 171.593 32.4885C171.526 32.2596 171.421 32.0552 171.286 31.8759C171.151 31.6965 170.98 31.5603 170.771 31.4553C170.562 31.3562 170.317 31.3068 170.034 31.3068C169.66 31.3068 169.347 31.3933 169.101 31.5729C168.85 31.7524 168.666 31.9813 168.549 32.272C168.426 32.5627 168.365 32.8845 168.365 33.237C168.365 33.5836 168.426 33.9054 168.549 34.1961C168.672 34.4868 168.856 34.722 169.108 34.8952C169.353 35.0748 169.66 35.1613 170.034 35.1613L170.034 35.1611ZM172.937 35.4209V31.0468H173.416L176.031 34.9755V31.0468H176.381V35.4209H175.92L173.287 31.4922V35.4209H172.938H172.937ZM178.682 35.4209L180.358 31.0468H180.805L182.493 35.4209H182.101L181.72 34.4371H179.443L179.069 35.4209H178.682H178.682ZM179.56 34.1216H181.603L180.585 31.4117L179.56 34.1216ZM183.138 35.4209V31.0468H183.616L186.231 34.9755V31.0468H186.581V35.4209H186.121L183.488 31.4922V35.4209H183.138H183.138ZM187.698 35.4209V31.0468H189.207C189.656 31.0468 190.03 31.1395 190.331 31.319C190.631 31.5046 190.852 31.7583 191.006 32.0861C191.159 32.414 191.233 32.7977 191.233 33.2368C191.233 33.67 191.159 34.0475 191.006 34.3754C190.852 34.7032 190.631 34.957 190.331 35.1425C190.03 35.3282 189.655 35.4209 189.207 35.4209H187.698ZM188.048 35.0993H189.158C189.545 35.0993 189.864 35.0189 190.116 34.8642C190.367 34.7095 190.552 34.4868 190.68 34.2083C190.809 33.93 190.871 33.6021 190.871 33.2369C190.871 32.8781 190.809 32.5563 190.686 32.2719C190.564 31.9936 190.38 31.7707 190.134 31.6099C189.889 31.449 189.576 31.3686 189.201 31.3686H188.047V35.0994L188.048 35.0993ZM195.283 35.4704C195.032 35.4704 194.792 35.4395 194.565 35.3715C194.332 35.3035 194.13 35.192 193.958 35.0374C193.786 34.8827 193.663 34.6786 193.589 34.4249H193.97C194.05 34.6044 194.154 34.7529 194.295 34.858C194.436 34.9631 194.59 35.0436 194.768 35.0868C194.94 35.1364 195.111 35.1611 195.283 35.1611C195.474 35.1611 195.658 35.1302 195.836 35.0684C196.014 35.0126 196.155 34.9199 196.265 34.796C196.376 34.6723 196.431 34.5115 196.431 34.3074C196.431 34.1465 196.4 34.0167 196.339 33.9176C196.271 33.8187 196.185 33.7381 196.081 33.6763C195.971 33.6206 195.842 33.5712 195.701 33.5278C195.596 33.4968 195.486 33.4661 195.375 33.4351C195.265 33.4103 195.161 33.3856 195.056 33.3546C194.952 33.3237 194.848 33.2927 194.756 33.2618C194.627 33.2248 194.504 33.1814 194.381 33.1257C194.252 33.07 194.142 33.0019 194.05 32.9215C193.952 32.8411 193.872 32.7359 193.817 32.6184C193.755 32.5008 193.725 32.3523 193.725 32.1791C193.725 31.9996 193.749 31.8451 193.805 31.7151C193.86 31.5852 193.933 31.4738 194.032 31.381C194.13 31.2884 194.24 31.2139 194.369 31.1583C194.498 31.1026 194.633 31.0655 194.78 31.0345C194.921 31.0098 195.069 30.9973 195.222 30.9973C195.455 30.9973 195.676 31.0283 195.879 31.0964C196.081 31.1644 196.253 31.2696 196.394 31.418C196.536 31.5665 196.628 31.7644 196.664 32.0182H196.308C196.265 31.8387 196.192 31.7026 196.081 31.5975C195.965 31.4924 195.836 31.418 195.682 31.3748C195.529 31.3314 195.376 31.3067 195.216 31.3067C195.087 31.3067 194.958 31.3191 194.829 31.3438C194.701 31.3748 194.578 31.418 194.467 31.48C194.357 31.5418 194.265 31.6223 194.197 31.7275C194.13 31.8326 194.093 31.9686 194.093 32.1296C194.093 32.2903 194.13 32.4203 194.197 32.5255C194.265 32.6307 194.351 32.7111 194.461 32.7731C194.566 32.8349 194.688 32.8905 194.823 32.9339C195.001 32.9896 195.192 33.039 195.382 33.0824C195.572 33.1256 195.756 33.1813 195.928 33.2369C196.051 33.2742 196.167 33.3236 196.272 33.3793C196.376 33.4411 196.468 33.5155 196.548 33.5958C196.628 33.6763 196.689 33.769 196.732 33.8743C196.775 33.9793 196.799 34.1032 196.799 34.233C196.799 34.462 196.756 34.6537 196.677 34.8085C196.591 34.9631 196.474 35.093 196.333 35.192C196.192 35.2909 196.026 35.3591 195.848 35.4025C195.67 35.4519 195.48 35.4704 195.283 35.4704H195.283ZM199.389 35.4704C198.996 35.4704 198.677 35.39 198.432 35.223C198.18 35.0559 198.002 34.8333 197.886 34.5425C197.769 34.2579 197.708 33.9299 197.708 33.5586V31.0468H198.064V33.5401C198.064 33.8432 198.106 34.1154 198.199 34.3567C198.285 34.6042 198.426 34.8022 198.622 34.9444C198.819 35.0867 199.076 35.161 199.395 35.161C199.727 35.161 199.991 35.0867 200.181 34.9382C200.371 34.7958 200.512 34.5979 200.598 34.3505C200.678 34.1092 200.721 33.837 200.721 33.54V31.0467H201.077V33.5585C201.077 33.9298 201.022 34.2578 200.905 34.5424C200.788 34.8331 200.61 35.0558 200.359 35.2229C200.107 35.39 199.788 35.4703 199.389 35.4703L199.389 35.4704ZM202.163 35.421V31.0469H203.624C203.937 31.0469 204.207 31.0963 204.434 31.1954C204.655 31.3004 204.827 31.4552 204.944 31.6655C205.06 31.8759 205.121 32.1419 205.121 32.4697C205.121 32.7913 205.054 33.0574 204.913 33.2678C204.771 33.4844 204.575 33.6452 204.336 33.7506C204.09 33.8557 203.814 33.9113 203.507 33.9113H202.513V35.4209H202.163V35.421ZM202.513 33.5958H203.489C203.869 33.5958 204.176 33.503 204.409 33.3175C204.643 33.138 204.759 32.8473 204.759 32.445C204.759 32.0677 204.655 31.7893 204.452 31.6222C204.25 31.4552 203.961 31.3685 203.593 31.3685H202.513V33.5958ZM206.005 35.421V31.0469H207.466C207.779 31.0469 208.049 31.0963 208.276 31.1954C208.497 31.3004 208.669 31.4552 208.785 31.6655C208.902 31.8759 208.963 32.1419 208.963 32.4697C208.963 32.7913 208.896 33.0574 208.755 33.2678C208.613 33.4844 208.417 33.6452 208.178 33.7506C207.932 33.8557 207.656 33.9113 207.349 33.9113H206.355V35.4209H206.005V35.421ZM206.355 33.5958H207.331C207.711 33.5958 208.018 33.503 208.251 33.3175C208.485 33.138 208.601 32.8473 208.601 32.445C208.601 32.0677 208.497 31.7893 208.294 31.6222C208.092 31.4552 207.803 31.3685 207.435 31.3685H206.355V33.5958ZM211.639 35.4704C211.191 35.4704 210.817 35.3715 210.516 35.1797C210.215 34.988 209.988 34.7219 209.835 34.3816C209.681 34.0476 209.608 33.6639 209.608 33.2369C209.608 32.8101 209.687 32.4265 209.841 32.0862C209.994 31.746 210.221 31.48 210.522 31.2882C210.823 31.0964 211.191 30.9973 211.639 30.9973C212.087 30.9973 212.461 31.0964 212.762 31.2882C213.063 31.4862 213.284 31.7522 213.437 32.0862C213.591 32.4266 213.664 32.8102 213.664 33.2369C213.664 33.6639 213.591 34.0413 213.437 34.3816C213.284 34.7219 213.057 34.9879 212.756 35.1797C212.455 35.3715 212.087 35.4704 211.639 35.4704ZM211.639 35.1611C212.014 35.1611 212.326 35.0746 212.572 34.9013C212.817 34.7282 213.002 34.493 213.118 34.2021C213.235 33.9113 213.296 33.5896 213.296 33.2369C213.296 32.9708 213.266 32.7236 213.198 32.4885C213.13 32.2596 213.026 32.0552 212.891 31.8759C212.756 31.6965 212.584 31.5603 212.376 31.4553C212.167 31.3562 211.922 31.3068 211.639 31.3068C211.265 31.3068 210.952 31.3933 210.706 31.5729C210.455 31.7524 210.27 31.9813 210.154 32.272C210.031 32.5627 209.97 32.8845 209.97 33.237C209.97 33.5836 210.031 33.9054 210.154 34.1961C210.277 34.4868 210.461 34.722 210.712 34.8952C210.958 35.0748 211.265 35.1613 211.639 35.1613L211.639 35.1611ZM214.542 35.4209V31.0468H216.138C216.365 31.0468 216.574 31.0715 216.764 31.1147C216.948 31.1642 217.107 31.2385 217.242 31.3437C217.371 31.4488 217.476 31.585 217.549 31.7522C217.617 31.9253 217.654 32.1357 217.654 32.3771C217.654 32.606 217.611 32.804 217.531 32.9709C217.451 33.1381 217.328 33.2805 217.175 33.3917C217.022 33.503 216.837 33.5835 216.623 33.633L217.568 35.421H217.181L216.261 33.6948H214.892V35.421H214.542V35.4209ZM214.892 33.3792H215.966C216.138 33.3792 216.303 33.3668 216.463 33.3359C216.623 33.3112 216.764 33.2616 216.893 33.1874C217.016 33.1132 217.114 33.0079 217.187 32.872C217.255 32.7419 217.292 32.5688 217.292 32.3584C217.298 32.1047 217.249 31.9006 217.144 31.7583C217.04 31.6159 216.893 31.5108 216.715 31.4552C216.531 31.3994 216.316 31.3685 216.077 31.3685H214.892V33.3793L214.892 33.3792ZM219.568 35.4209V31.3685H218.114V31.0469H221.373V31.3685H219.918V35.4209H219.569H219.568Z" fill="white"/>
<path d="M59.6343 43.1021C59.1863 43.1021 58.8121 43.0032 58.5112 42.8114C58.2105 42.6197 57.9835 42.3536 57.8299 42.0132C57.6766 41.6792 57.603 41.2956 57.603 40.8686C57.603 40.4418 57.6827 40.0582 57.8361 39.7178C57.9896 39.3776 58.2166 39.1116 58.5175 38.9199C58.818 38.728 59.1863 38.6289 59.6343 38.6289C60.0824 38.6289 60.4568 38.728 60.7575 38.9199C61.0583 39.1178 61.2792 39.3838 61.4327 39.7178C61.586 40.0583 61.6598 40.4419 61.6598 40.8686C61.6598 41.2956 61.586 41.6729 61.4327 42.0132C61.2792 42.3536 61.0521 42.6196 60.7514 42.8114C60.4507 43.0032 60.0824 43.1021 59.6343 43.1021ZM59.6343 42.7928C60.0088 42.7928 60.3218 42.7061 60.5672 42.533C60.8127 42.3598 60.9969 42.1246 61.1135 41.8338C61.2301 41.5429 61.2916 41.2212 61.2916 40.8686C61.2916 40.6025 61.2608 40.3551 61.1933 40.1201C61.1257 39.8913 61.0214 39.6869 60.8863 39.5076C60.7513 39.3281 60.5794 39.1919 60.3709 39.0869C60.1622 38.9879 59.9168 38.9385 59.6343 38.9385C59.26 38.9385 58.947 39.025 58.7014 39.2045C58.4498 39.384 58.2656 39.6129 58.1491 39.9036C58.0264 40.1943 57.965 40.5162 57.965 40.8687C57.965 41.2153 58.0264 41.5371 58.1491 41.8278C58.2718 42.1185 58.456 42.3537 58.7076 42.5269C58.9531 42.7063 59.2599 42.793 59.6342 42.793L59.6343 42.7928ZM62.5374 43.0526V38.6784H65.3729V39.0001H62.8873V40.8747H65.0291V41.1963H62.8873V43.0525H62.5374V43.0526ZM69.3498 43.102C69.0981 43.102 68.8587 43.071 68.6317 43.0031C68.3985 42.9349 68.196 42.8236 68.0241 42.669C67.8522 42.5142 67.7295 42.3102 67.6558 42.0565H68.0363C68.1161 42.236 68.2205 42.3844 68.3616 42.4895C68.5028 42.5947 68.6562 42.6751 68.8342 42.7184C69.0061 42.768 69.1778 42.7927 69.3497 42.7927C69.54 42.7927 69.7239 42.7618 69.902 42.6999C70.0801 42.6442 70.2211 42.5515 70.3316 42.4276C70.4422 42.3038 70.4974 42.1431 70.4974 41.9389C70.4974 41.778 70.4668 41.6482 70.4053 41.5492C70.3378 41.4503 70.2518 41.3697 70.1476 41.3079C70.0372 41.2521 69.9082 41.2027 69.7671 41.1594C69.6627 41.1284 69.5523 41.0976 69.4418 41.0667C69.3313 41.0419 69.2269 41.0172 69.1227 40.9861C69.0183 40.9552 68.914 40.9243 68.822 40.8934C68.6932 40.8563 68.5703 40.813 68.4476 40.7573C68.3187 40.7015 68.2082 40.6335 68.1162 40.5531C68.0181 40.4727 67.9381 40.3675 67.883 40.2499C67.8217 40.1324 67.7911 39.9838 67.7911 39.8107C67.7911 39.6312 67.8157 39.4767 67.8709 39.3467C67.9261 39.2167 67.9997 39.1053 68.098 39.0126C68.1963 38.92 68.3067 38.8455 68.4355 38.7899C68.5644 38.7342 68.6994 38.697 68.8467 38.666C68.9878 38.6413 69.1351 38.6288 69.2886 38.6288C69.5218 38.6288 69.7429 38.6598 69.9454 38.7279C70.1478 38.796 70.3197 38.9011 70.4608 39.0496C70.602 39.198 70.6939 39.396 70.7309 39.6497H70.3749C70.3319 39.4703 70.2583 39.3342 70.1478 39.2291C70.0313 39.1239 69.9023 39.0496 69.7488 39.0064C69.5955 38.963 69.442 38.9383 69.2823 38.9383C69.1536 38.9383 69.0247 38.9507 68.8958 38.9754C68.767 39.0064 68.6441 39.0496 68.5337 39.1115C68.4231 39.1733 68.3312 39.2538 68.2636 39.359C68.1962 39.4642 68.1593 39.6002 68.1593 39.7612C68.1593 39.9219 68.1963 40.0519 68.2636 40.1571C68.3312 40.2623 68.417 40.3427 68.5276 40.4045C68.6319 40.4665 68.7545 40.5221 68.8897 40.5655C69.0678 40.6211 69.2579 40.6705 69.4483 40.714C69.6384 40.7572 69.8225 40.8129 69.9944 40.8685C70.1171 40.9057 70.2338 40.9551 70.338 41.0108C70.4424 41.0727 70.5343 41.147 70.6142 41.2273C70.6939 41.3078 70.7554 41.4006 70.7982 41.5058C70.8412 41.6109 70.8658 41.7348 70.8658 41.8646C70.8658 42.0936 70.8229 42.2853 70.7429 42.44C70.6571 42.5947 70.5405 42.7245 70.3993 42.8236C70.2582 42.9225 70.0925 42.9906 69.9145 43.034C69.7366 43.0834 69.5463 43.102 69.3499 43.102H69.3498Z" fill="white"/>
<path d="M72.7492 43.0527V39.0002H71.2947V38.6785H74.5535V39.0002H73.099V43.0527H72.7492Z" fill="white"/>
<path d="M74.4427 43.0527L76.1183 38.6785H76.5662L78.254 43.0527H77.8612L77.4807 42.0687H75.2038L74.8295 43.0527H74.4429H74.4427ZM75.3204 41.7533H77.3641L76.3453 39.0434L75.3204 41.7533Z" fill="white"/>
<path d="M79.5978 43.0526V39.0002H78.1434V38.6785H81.4023V39.0002H79.9479V43.0526H79.5979H79.5978ZM82.0714 43.0526V38.6784H84.9068V39.0001H82.4212V40.7199H84.6551V41.0417H82.4212V42.7307H84.9068V43.0524H82.0714V43.0526ZM87.4415 43.0526V38.6784H87.7913V43.0526H87.4415ZM88.9083 43.0526V38.6784H89.3869L92.0015 42.6071V38.6784H92.3514V43.0526H91.8912L89.2582 39.1238V43.0526H88.9084H88.9083ZM93.4683 43.0526V38.6784H96.3038V39.0001H93.8181V40.8747H95.9601V41.1963H93.8181V43.0525H93.4683V43.0526ZM98.9059 43.102C98.4579 43.102 98.0837 43.0031 97.7828 42.8113C97.4821 42.6196 97.2551 42.3535 97.1015 42.0131C96.9482 41.6791 96.8745 41.2955 96.8745 40.8685C96.8745 40.4417 96.9543 40.0581 97.1076 39.7177C97.2612 39.3775 97.4882 39.1115 97.789 38.9198C98.0896 38.7279 98.4579 38.6288 98.9059 38.6288C99.354 38.6288 99.7284 38.7279 100.029 38.9198C100.33 39.1177 100.551 39.3837 100.704 39.7177C100.858 40.0582 100.931 40.4418 100.931 40.8685C100.931 41.2955 100.858 41.6728 100.704 42.0131C100.551 42.3535 100.324 42.6195 100.023 42.8113C99.7222 43.0031 99.354 43.102 98.9059 43.102ZM98.9059 42.7927C99.2803 42.7927 99.5933 42.706 99.8388 42.5329C100.084 42.3597 100.268 42.1245 100.385 41.8336C100.502 41.5428 100.563 41.2211 100.563 40.8685C100.563 40.6024 100.532 40.355 100.465 40.12C100.397 39.8912 100.293 39.6868 100.158 39.5075C100.023 39.328 99.851 39.1918 99.6424 39.0868C99.4337 38.9878 99.1884 38.9384 98.9059 38.9384C98.5316 38.9384 98.2186 39.0249 97.973 39.2044C97.7214 39.3839 97.5372 39.6128 97.4206 39.9035C97.2979 40.1942 97.2366 40.5161 97.2366 40.8686C97.2366 41.2152 97.2979 41.537 97.4206 41.8277C97.5435 42.1184 97.7276 42.3536 97.9792 42.5268C98.2247 42.7062 98.5315 42.7929 98.9058 42.7929L98.9059 42.7927ZM101.809 43.0525V38.6783H103.405C103.632 38.6783 103.84 38.7031 104.031 38.7462C104.215 38.7958 104.374 38.8701 104.509 38.9753C104.638 39.0804 104.742 39.2165 104.816 39.3837C104.884 39.5569 104.921 39.7673 104.921 40.0087C104.921 40.2376 104.878 40.4355 104.798 40.6025C104.718 40.7697 104.595 40.912 104.442 41.0233C104.288 41.1346 104.104 41.2151 103.889 41.2646L104.835 43.0526H104.448L103.527 41.3264H102.159V43.0526H101.809V43.0525ZM102.159 41.0107H103.233C103.405 41.0107 103.57 40.9984 103.73 40.9675C103.89 40.9428 104.031 40.8932 104.16 40.819C104.282 40.7447 104.381 40.6395 104.454 40.5035C104.522 40.3735 104.559 40.2003 104.559 39.99C104.565 39.7363 104.516 39.5322 104.411 39.3899C104.307 39.2474 104.16 39.1423 103.982 39.0867C103.798 39.031 103.583 39.0001 103.343 39.0001H102.159V41.0108L102.159 41.0107ZM105.829 43.0525V38.6783H106.344L107.873 41.3448L109.376 38.6783H109.88V43.0525H109.53V39.0742L107.952 41.8646H107.781L106.179 39.0742V43.0525H105.829H105.829ZM110.524 43.0525L112.2 38.6783H112.648L114.335 43.0525H113.943L113.562 42.0686H111.285L110.911 43.0525H110.524H110.524ZM111.402 41.7531H113.445L112.427 39.0433L111.402 41.7531Z" fill="white"/>
<path d="M115.678 43.0527V39.0002H114.223V38.6786H117.482V39.0002H116.028V43.0527H115.678H115.678ZM118.151 43.0527V38.6785H118.501V43.0527H118.151ZM121.41 43.1021C120.962 43.1021 120.588 43.0032 120.287 42.8113C119.986 42.6196 119.759 42.3535 119.606 42.0131C119.452 41.6791 119.379 41.2956 119.379 40.8686C119.379 40.4418 119.458 40.0581 119.612 39.7178C119.765 39.3775 119.992 39.1116 120.293 38.9198C120.594 38.728 120.962 38.6289 121.41 38.6289C121.858 38.6289 122.232 38.728 122.533 38.9198C122.834 39.1177 123.055 39.3837 123.208 39.7178C123.362 40.0582 123.435 40.4419 123.435 40.8686C123.435 41.2956 123.362 41.6729 123.208 42.0131C123.055 42.3535 122.828 42.6195 122.527 42.8113C122.226 43.0032 121.858 43.1021 121.41 43.1021ZM121.41 42.7928C121.784 42.7928 122.097 42.7061 122.343 42.5329C122.588 42.3597 122.773 42.1245 122.889 41.8337C123.006 41.5429 123.067 41.2211 123.067 40.8686C123.067 40.6025 123.037 40.3551 122.969 40.12C122.901 39.8912 122.797 39.6868 122.662 39.5075C122.527 39.328 122.355 39.1919 122.147 39.0868C121.938 38.9878 121.692 38.9384 121.41 38.9384C121.036 38.9384 120.723 39.025 120.477 39.2045C120.225 39.3839 120.041 39.6128 119.925 39.9035C119.802 40.1943 119.741 40.5161 119.741 40.8687C119.741 41.2153 119.802 41.537 119.925 41.8277C120.047 42.1185 120.232 42.3536 120.483 42.5269C120.729 42.7063 121.036 42.793 121.41 42.793L121.41 42.7928ZM124.313 43.0526V38.6784H124.792L127.406 42.6071V38.6784H127.756V43.0526H127.296L124.663 39.1238V43.0526H124.313H124.313ZM132.04 43.102C131.788 43.102 131.549 43.071 131.322 43.0031C131.089 42.9349 130.886 42.8236 130.714 42.6689C130.542 42.5141 130.42 42.3101 130.346 42.0564H130.726C130.806 42.2359 130.911 42.3843 131.052 42.4894C131.193 42.5947 131.346 42.6751 131.524 42.7183C131.696 42.7679 131.868 42.7927 132.04 42.7927C132.23 42.7927 132.414 42.7617 132.592 42.6998C132.77 42.6442 132.911 42.5514 133.022 42.4276C133.132 42.3037 133.188 42.143 133.188 41.9389C133.188 41.7779 133.157 41.6481 133.095 41.5491C133.028 41.4502 132.942 41.3696 132.838 41.3078C132.727 41.252 132.598 41.2026 132.457 41.1593C132.353 41.1284 132.242 41.0976 132.132 41.0667C132.021 41.0418 131.917 41.0172 131.813 40.986C131.708 40.9551 131.604 40.9242 131.512 40.8933C131.383 40.8562 131.26 40.8129 131.138 40.7572C131.009 40.7015 130.898 40.6334 130.806 40.5531C130.708 40.4727 130.628 40.3674 130.573 40.2498C130.512 40.1323 130.481 39.9837 130.481 39.8106C130.481 39.6311 130.506 39.4766 130.561 39.3466C130.616 39.2166 130.69 39.1053 130.788 39.0126C130.886 38.9199 130.997 38.8455 131.126 38.7898C131.255 38.7341 131.39 38.697 131.537 38.666C131.678 38.6412 131.825 38.6288 131.979 38.6288C132.212 38.6288 132.433 38.6597 132.636 38.7279C132.838 38.796 133.01 38.901 133.151 39.0495C133.292 39.1979 133.384 39.3959 133.421 39.6497H133.065C133.022 39.4703 132.948 39.3341 132.838 39.229C132.721 39.1239 132.592 39.0495 132.439 39.0063C132.286 38.963 132.132 38.9382 131.972 38.9382C131.844 38.9382 131.715 38.9506 131.586 38.9754C131.457 39.0063 131.334 39.0495 131.224 39.1114C131.113 39.1733 131.021 39.2538 130.954 39.3589C130.886 39.4641 130.849 39.6002 130.849 39.7611C130.849 39.9218 130.886 40.0518 130.954 40.157C131.021 40.2622 131.107 40.3427 131.218 40.4045C131.322 40.4664 131.445 40.5221 131.58 40.5654C131.758 40.6211 131.948 40.6705 132.138 40.7139C132.328 40.7571 132.513 40.8128 132.685 40.8685C132.807 40.9056 132.924 40.955 133.028 41.0107C133.133 41.0726 133.224 41.147 133.304 41.2273C133.384 41.3078 133.445 41.4005 133.488 41.5058C133.531 41.6108 133.556 41.7347 133.556 41.8645C133.556 42.0935 133.513 42.2852 133.433 42.4399C133.347 42.5947 133.231 42.7245 133.089 42.8236C132.948 42.9225 132.783 42.9905 132.605 43.034C132.427 43.0834 132.236 43.102 132.04 43.102H132.04Z" fill="white"/>
<path d="M135.464 43.0527V41.4069L133.923 38.6785H134.341L135.642 41.048L136.943 38.6785H137.342L135.813 41.4007V43.0527H135.464Z" fill="white"/>
<path d="M139.397 43.1022C139.146 43.1022 138.906 43.0711 138.679 43.0033C138.446 42.9351 138.243 42.8238 138.072 42.6691C137.9 42.5143 137.777 42.3103 137.703 42.0566H138.084C138.164 42.2361 138.268 42.3845 138.409 42.4896C138.55 42.5948 138.704 42.6753 138.882 42.7185C139.054 42.7681 139.225 42.7928 139.397 42.7928C139.588 42.7928 139.772 42.7619 139.95 42.7C140.128 42.6443 140.269 42.5516 140.379 42.4278C140.49 42.3039 140.545 42.1432 140.545 41.939C140.545 41.7781 140.514 41.6483 140.453 41.5493C140.385 41.4504 140.299 41.3698 140.195 41.308C140.085 41.2522 139.956 41.2028 139.815 41.1595C139.71 41.1286 139.6 41.0978 139.489 41.0668C139.379 41.042 139.275 41.0173 139.17 40.9862C139.066 40.9553 138.962 40.9244 138.87 40.8935C138.741 40.8564 138.618 40.8131 138.495 40.7574C138.366 40.7017 138.256 40.6336 138.164 40.5533C138.066 40.4729 137.986 40.3676 137.931 40.25C137.869 40.1325 137.839 39.9839 137.839 39.8108C137.839 39.6313 137.863 39.4768 137.919 39.3468C137.974 39.2168 138.047 39.1055 138.146 39.0127C138.244 38.9201 138.354 38.8457 138.483 38.79C138.612 38.7343 138.747 38.6972 138.894 38.6661C139.035 38.6414 139.183 38.629 139.336 38.629C139.569 38.629 139.79 38.6599 139.993 38.7281C140.195 38.7962 140.367 38.9012 140.508 39.0497C140.65 39.1981 140.742 39.3961 140.778 39.6499H140.422C140.379 39.4704 140.306 39.3343 140.195 39.2292C140.079 39.1241 139.95 39.0497 139.796 39.0065C139.643 38.9631 139.49 38.9384 139.33 38.9384C139.201 38.9384 139.072 38.9508 138.943 38.9756C138.814 39.0065 138.692 39.0497 138.581 39.1116C138.471 39.1735 138.379 39.254 138.311 39.3591C138.244 39.4643 138.207 39.6004 138.207 39.7613C138.207 39.922 138.244 40.052 138.311 40.1572C138.379 40.2624 138.465 40.3428 138.575 40.4047C138.679 40.4666 138.802 40.5223 138.937 40.5656C139.115 40.6213 139.305 40.6706 139.496 40.7141C139.686 40.7573 139.87 40.813 140.042 40.8686C140.165 40.9058 140.281 40.9552 140.386 41.0109C140.49 41.0728 140.582 41.1472 140.662 41.2275C140.742 41.308 140.803 41.4007 140.846 41.506C140.889 41.611 140.913 41.7349 140.913 41.8647C140.913 42.0937 140.871 42.2854 140.791 42.4401C140.705 42.5948 140.588 42.7247 140.447 42.8238C140.306 42.9226 140.14 42.9907 139.962 43.0342C139.784 43.0836 139.594 43.1022 139.397 43.1022H139.397Z" fill="white"/>
<path d="M142.797 43.0526V39.0002H141.343V38.6785H144.602V39.0002H143.147V43.0526H142.797H142.797ZM145.271 43.0526V38.6784H148.106V39.0001H145.62V40.7199H147.854V41.0417H145.62V42.7307H148.106V43.0524H145.271V43.0526ZM148.984 43.0526V38.6784H149.499L151.028 41.3449L152.531 38.6784H153.034V43.0526H152.684V39.0743L151.107 41.8647H150.935L149.334 39.0743V43.0526H148.984H148.984ZM155.661 43.102C155.41 43.102 155.17 43.071 154.943 43.0031C154.71 42.9349 154.507 42.8236 154.335 42.669C154.164 42.5142 154.041 42.3102 153.967 42.0565H154.348C154.427 42.236 154.532 42.3844 154.673 42.4895C154.814 42.5947 154.968 42.6751 155.146 42.7184C155.317 42.768 155.489 42.7927 155.661 42.7927C155.851 42.7927 156.035 42.7618 156.213 42.6999C156.391 42.6442 156.532 42.5515 156.643 42.4276C156.753 42.3038 156.809 42.1431 156.809 41.9389C156.809 41.778 156.778 41.6482 156.717 41.5492C156.649 41.4503 156.563 41.3697 156.459 41.3079C156.349 41.2521 156.22 41.2027 156.078 41.1594C155.974 41.1284 155.864 41.0976 155.753 41.0667C155.643 41.0419 155.538 41.0172 155.434 40.9861C155.33 40.9552 155.225 40.9243 155.133 40.8934C155.005 40.8563 154.882 40.813 154.759 40.7573C154.63 40.7015 154.52 40.6335 154.428 40.5531C154.329 40.4727 154.25 40.3675 154.194 40.2499C154.133 40.1324 154.102 39.9838 154.102 39.8107C154.102 39.6312 154.127 39.4767 154.182 39.3467C154.237 39.2167 154.311 39.1053 154.409 39.0126C154.508 38.92 154.618 38.8455 154.747 38.7899C154.876 38.7342 155.011 38.697 155.158 38.666C155.299 38.6413 155.446 38.6288 155.6 38.6288C155.833 38.6288 156.054 38.6598 156.257 38.7279C156.459 38.796 156.631 38.9011 156.772 39.0496C156.913 39.198 157.005 39.396 157.042 39.6497H156.686C156.643 39.4703 156.57 39.3342 156.459 39.2291C156.343 39.1239 156.214 39.0496 156.06 39.0064C155.907 38.963 155.753 38.9383 155.594 38.9383C155.465 38.9383 155.336 38.9507 155.207 38.9754C155.078 39.0064 154.955 39.0496 154.845 39.1115C154.735 39.1733 154.643 39.2538 154.575 39.359C154.508 39.4642 154.471 39.6002 154.471 39.7612C154.471 39.9219 154.508 40.0519 154.575 40.1571C154.643 40.2623 154.728 40.3427 154.839 40.4045C154.943 40.4665 155.066 40.5221 155.201 40.5655C155.379 40.6211 155.569 40.6705 155.76 40.714C155.95 40.7572 156.134 40.8129 156.306 40.8685C156.429 40.9057 156.545 40.9551 156.649 41.0108C156.754 41.0727 156.846 41.147 156.926 41.2273C157.005 41.3078 157.067 41.4006 157.11 41.5058C157.153 41.6109 157.177 41.7348 157.177 41.8646C157.177 42.0936 157.134 42.2853 157.054 42.44C156.968 42.5947 156.852 42.7245 156.711 42.8236C156.57 42.9225 156.404 42.9906 156.226 43.034C156.048 43.0834 155.858 43.102 155.661 43.102H155.661Z" fill="white"/>
<path d="M76.1564 18.1166C76.1564 20.7085 75.3431 22.6921 73.7427 24.041C72.1422 25.4163 69.8336 26.1039 66.8689 26.1039C63.8781 26.1039 61.5693 25.4163 59.9689 24.041C58.3422 22.6921 57.5289 20.7085 57.5289 18.1166V7.32574H61.8054V18.4604C61.8054 19.4655 61.9889 20.2325 62.3301 20.7616C62.6711 21.3169 63.2221 21.6872 63.9305 21.8723C64.6387 22.084 65.6357 22.1897 66.8688 22.1897C68.1019 22.1897 69.0989 22.084 69.8072 21.8723C70.5155 21.6606 71.0666 21.2903 71.4076 20.735C71.7486 20.2061 71.9061 19.4389 71.9061 18.4604V7.32574H76.1563V18.1166H76.1564ZM78.8586 21.7401L89.2482 11.1079H79.1472V7.32574H94.9938V11.5575L84.552 22.0575H95.2562V25.8397H78.8586V21.7401ZM98.1946 7.32574H102.576V25.8396H98.1946V7.32574ZM106.695 7.32574H112.388L119.708 17.6142L121.44 20.1003H121.545L121.518 17.6671V7.32574H125.769V25.8396H120.312L112.782 15.1544L111.024 12.6154H110.919L110.945 15.1544V25.8396H106.695V7.32574ZM134.138 11.2665V15.0222H142.874V18.8307H134.138V25.8396H129.861V7.32574H143.74V11.2665H134.138ZM156.596 26.1039C154.523 26.1039 152.66 25.7072 151.06 24.9404C149.46 24.1734 148.2 23.0889 147.308 21.6607C146.39 20.2326 145.944 18.5662 145.944 16.6356C145.944 14.7048 146.39 13.0121 147.308 11.5575C148.2 10.1027 149.46 8.99194 151.087 8.22511C152.687 7.45808 154.523 7.06138 156.596 7.06138C158.669 7.06138 160.531 7.45818 162.132 8.22511C163.732 8.99204 164.965 10.1028 165.857 11.5575C166.749 13.0122 167.195 14.7048 167.195 16.6356C167.195 18.5662 166.749 20.2326 165.857 21.6607C164.939 23.0889 163.706 24.1734 162.105 24.9404C160.505 25.7073 158.669 26.1039 156.596 26.1039ZM156.596 22.1897C158.747 22.1897 160.321 21.74 161.318 20.8408C162.289 19.968 162.788 18.5399 162.788 16.5828C162.788 15.1545 162.578 14.0436 162.132 13.2238C161.686 12.4039 161.03 11.8221 160.138 11.4782C159.246 11.1344 158.065 10.9755 156.596 10.9755C155.127 10.9755 153.946 11.1343 153.054 11.4782C152.136 11.822 151.48 12.4039 151.034 13.2238C150.588 14.0436 150.378 15.1545 150.378 16.5828C150.378 18.0375 150.588 19.1746 151.034 19.9945C151.48 20.8145 152.136 21.3698 153.028 21.6873C153.92 22.0311 155.101 22.1898 156.596 22.1898L156.596 22.1897ZM179.657 26.1039C177.558 26.1039 175.696 25.7072 174.095 24.9404C172.469 24.1734 171.209 23.0889 170.317 21.6607C169.399 20.2326 168.953 18.5662 168.953 16.6356C168.953 14.6784 169.373 12.9858 170.239 11.531C171.104 10.1027 172.337 8.99194 173.938 8.22501C175.538 7.45798 177.453 7.06128 179.657 7.06128C182.412 7.06128 184.616 7.72234 186.295 9.01841C187.948 10.3408 188.971 12.2979 189.364 14.8634L185.088 15.6834L185.036 15.657C184.826 14.3872 184.563 13.4353 184.222 12.774C183.881 12.1129 183.383 11.6631 182.701 11.3722C181.992 11.1078 180.995 10.9754 179.657 10.9754C178.057 10.9754 176.824 11.1342 175.932 11.4781C175.014 11.8219 174.384 12.4038 173.99 13.2237C173.597 14.0435 173.387 15.1544 173.387 16.5827C173.387 18.0374 173.597 19.148 173.99 19.9679C174.384 20.7878 175.04 21.3433 175.958 21.6871C176.85 22.0309 178.083 22.1896 179.657 22.1896C180.995 22.1896 181.992 22.031 182.701 21.7399C183.409 21.4491 183.908 20.9993 184.249 20.3382C184.59 19.677 184.852 18.7249 185.036 17.4818L185.088 17.4553L189.365 18.2751C188.971 20.8671 187.948 22.8244 186.295 24.1203C184.616 25.4428 182.412 26.1038 179.657 26.1038V26.1039ZM202.168 26.1039C200.095 26.1039 198.232 25.7072 196.632 24.9404C195.032 24.1734 193.772 23.0889 192.88 21.6607C191.962 20.2326 191.516 18.5662 191.516 16.6356C191.516 14.7048 191.962 13.0121 192.88 11.5575C193.772 10.1027 195.032 8.99194 196.658 8.22511C198.259 7.45808 200.095 7.06138 202.168 7.06138C204.24 7.06138 206.103 7.45818 207.704 8.22511C209.304 8.99204 210.537 10.1028 211.429 11.5575C212.321 13.0122 212.767 14.7048 212.767 16.6356C212.767 18.5662 212.321 20.2326 211.429 21.6607C210.511 23.0889 209.278 24.1734 207.677 24.9404C206.077 25.7073 204.24 26.1039 202.168 26.1039ZM202.168 22.1897C204.319 22.1897 205.893 21.74 206.89 20.8408C207.861 19.968 208.359 18.5399 208.359 16.5828C208.359 15.1545 208.15 14.0436 207.704 13.2238C207.257 12.4039 206.602 11.8221 205.71 11.4782C204.818 11.1344 203.637 10.9755 202.168 10.9755C200.699 10.9755 199.518 11.1343 198.626 11.4782C197.708 11.822 197.052 12.4039 196.606 13.2238C196.16 14.0436 195.95 15.1545 195.95 16.5828C195.95 18.0375 196.16 19.1746 196.606 19.9945C197.052 20.8145 197.708 21.3698 198.6 21.6873C199.492 22.0311 200.672 22.1898 202.168 22.1898L202.168 22.1897ZM215.705 7.32574H222.947L226.725 18.1695L227.879 21.9517L229.033 18.1695L232.785 7.32574H240V25.8396H235.907V15.0486L235.96 11.3193H235.855L234.517 15.0486L230.529 25.8396H225.229L221.215 15.0486L219.903 11.3193H219.798L219.825 15.0486V25.8396H215.706V7.32574H215.705Z" fill="white"/>
<path fill-rule="evenodd" clip-rule="evenodd" d="M48.199 0.705707H6.33109C2.84889 0.705707 0 3.57755 0 7.08804V8.50684C1.14527 8.68332 2.417 9.02405 3.79475 9.51662C8.13302 11.0683 13.5345 14.1349 19.3341 18.3687C24.0475 14.8289 28.3848 12.2963 31.9031 11.0393C35.3396 9.81119 38.0071 9.79694 39.4991 11.2414C41.1893 12.8767 41.1214 16.1466 39.6139 20.4294C38.074 24.803 35.0322 30.2482 30.8327 36.0945C34.3445 40.8462 36.856 45.219 38.1029 48.7658C38.1663 48.9442 38.2253 49.1201 38.2815 49.2945H41.8678C45.3499 49.2945 48.1989 46.4231 48.1989 42.9127V0.705505L48.199 0.705707ZM0 27.5029V42.9122C0 45.3 1.31803 47.3915 3.25674 48.4852C4.73429 48.5291 6.52229 48.1636 8.55559 47.4264C12.7007 45.9254 17.8577 42.885 23.4973 38.6278C23.5418 38.5936 23.6062 38.6032 23.6407 38.6483C23.6718 38.6903 23.6662 38.7497 23.6294 38.7854C22.0407 40.3126 20.4578 41.7576 18.8962 43.1121C17.3062 44.4906 15.7371 45.7762 14.2049 46.9585L14.2042 46.9592L13.3097 47.6405L13.3093 47.641L13.3082 47.6417L13.3075 47.6422C12.5385 48.2204 11.7793 48.7717 11.0306 49.2941H30.5745C32.0217 47.6143 31.9398 44.6529 30.5758 40.8257C29.0865 36.6472 26.0702 31.4486 21.8474 25.7629C21.8133 25.7178 21.8225 25.6523 21.8675 25.6181C21.9094 25.5868 21.9682 25.5925 22.0033 25.6295H22.0038C23.5185 27.2313 24.9527 28.8273 26.2964 30.4015C27.6253 31.9593 28.8671 33.4973 30.0131 35.0011C31.9973 31.1005 33.2771 27.6407 33.7342 24.8469C34.1756 22.1464 33.8484 20.0731 32.6449 18.8336C31.0239 17.1648 27.9942 17.1904 24.0271 18.6276C19.882 20.129 14.7257 23.1688 9.08569 27.4261C9.0409 27.4602 8.97676 27.4512 8.94199 27.4055C8.91113 27.3635 8.91674 27.3041 8.95382 27.2689H8.95352C10.5417 25.7425 12.1239 24.2973 13.6849 22.944C15.2303 21.6031 16.7577 20.3511 18.2496 19.1955C14.3803 17.1951 10.9483 15.9043 8.17721 15.4436C5.49787 14.9981 3.44152 15.328 2.21197 16.5416C0.55595 18.1759 0.582104 21.2302 2.00755 25.2286C3.49643 29.4072 6.51257 34.6059 10.7355 40.2905C10.7697 40.336 10.7598 40.401 10.7146 40.4353C10.6734 40.4671 10.6145 40.4614 10.579 40.4238V40.4245C9.06475 38.8232 7.63188 37.2283 6.28891 35.6546C4.92098 34.0512 3.64504 32.4689 2.47211 30.9235L2.47151 30.923L1.79541 30.0213L1.79461 30.0208L1.79431 30.0196L1.79341 30.019C1.1629 29.1674 0.565169 28.3278 0.000200414 27.503L0 27.5029Z" fill="white"/>
</svg>
