<svg width="295" height="65" viewBox="0 0 295 65" fill="none" xmlns="http://www.w3.org/2000/svg">
<g clip-path="url(#clip0_180_578)">
<path fill-rule="evenodd" clip-rule="evenodd" d="M67.8804 36.4872V6.55843C67.8804 5.26885 68.4081 4.96882 69.5055 4.96882H74.4646C75.5672 4.96882 75.9278 5.35833 75.9278 6.60053V36.3503C75.9278 37.8978 75.5515 38.2347 74.0204 38.2347H69.3905C68.2879 38.2347 67.8751 38.0873 67.8751 36.4872M47.8611 0H10.4721C6.75146 0 3.45411 1.9949 1.5938 4.97409H20.5366C21.6182 4.97409 21.9997 4.83723 23.003 6.05839L29.1326 14.7538L35.257 6.05839C36.2656 4.83197 36.6366 4.97409 37.7287 4.97409H56.729C54.8686 1.9949 51.5765 0 47.8559 0M0.768161 6.59527H13.8164L20.2387 15.5118H0V10.5482C0 9.15337 0.276956 7.81642 0.768161 6.60053M0 17.133V26.0547H20.3484C21.6444 24.3862 22.9299 22.7124 24.2154 21.0438L21.3988 17.133H0ZM0 27.6759V32.6342C0 34.0343 0.276956 35.3713 0.768161 36.5924H12.0084L12.1547 36.3872C14.5324 33.4869 16.8316 30.5762 19.0943 27.6707H0V27.6759ZM1.5938 38.2189H19.9722C21.4876 38.2189 22.5327 37.2714 23.1128 36.5609C24.9574 34.3133 26.2533 32.6395 29.1274 29.1392H29.1326C32.0067 32.6395 33.3027 34.308 35.1473 36.5609C35.7326 37.2714 36.7777 38.2189 38.2931 38.2189H56.7394C54.8791 41.1981 51.5922 43.193 47.8611 43.193H10.4721C6.74623 43.193 3.45411 41.1981 1.59903 38.2189M57.5651 36.5977C58.0563 35.3765 58.3332 34.0396 58.3332 32.6395V27.6812H39.1762C41.4441 30.5867 43.7329 33.4922 46.121 36.3977L46.2621 36.603H57.5651V36.5977ZM58.3332 26.0547V17.133H36.8717L34.0604 21.0438C35.3406 22.7124 36.6261 24.3862 37.9221 26.0547H58.3332ZM58.3332 15.5118H38.037L44.4593 6.59527H57.5651C58.0615 7.81642 58.3384 9.15337 58.3384 10.543V15.5065L58.3332 15.5118ZM211.176 36.3766V6.82161C211.176 5.85837 211.798 5.02146 212.896 5.02146H229.774C230.767 5.02146 231.535 5.74257 231.535 6.7795V10.3272C231.535 11.0167 230.913 11.8799 230.213 11.8799H220.253C219.381 11.8799 218.842 12.3536 218.842 13.1748C218.832 14.2748 218.821 15.3802 218.821 16.4908C218.821 17.2961 219.323 17.9014 220.305 17.9014H227.789C229.037 17.9014 229.717 18.2804 229.717 19.4753V22.8124C229.717 24.0335 229.131 24.7283 227.752 24.7283H220.53C219.313 24.7283 218.842 25.1705 218.842 26.4074V29.9656C218.842 30.7183 219.182 31.3183 220.164 31.3183H229.753C231.358 31.3183 231.729 31.5604 231.729 32.9974V36.3766C231.729 37.7873 231.311 38.3242 229.962 38.3242H212.943C211.647 38.3242 211.187 37.3767 211.187 36.3766M276.042 24.7283C274.808 24.7283 274.479 25.2178 274.479 26.2916V36.5135C274.479 37.8294 273.706 38.2347 272.885 38.2347H268.548C267.414 38.2347 266.907 37.6767 266.907 36.6556V6.62685C266.907 5.58993 267.487 5.02146 268.585 5.02146H272.702C274.019 5.02146 274.484 5.80573 274.484 6.73212V16.0487C274.484 17.2909 274.798 17.612 276.089 17.612H285.829C287.115 17.612 287.433 17.2856 287.433 16.0487V6.73212C287.433 5.80573 287.893 5.02146 289.215 5.02146H293.328C294.43 5.02146 295.005 5.58466 295.005 6.62685V36.6609C295.005 37.682 294.504 38.2399 293.364 38.2399H289.027C288.201 38.2399 287.433 37.8346 287.433 36.5187V26.2969C287.433 25.2231 287.099 24.7336 285.866 24.7336H276.047L276.042 24.7283ZM187.614 36.324L187.64 13.1326C187.64 11.8904 187.149 11.5536 186.088 11.5536H178.84C177.529 11.5536 177.126 10.7798 177.126 9.94817V6.67422C177.126 5.53203 177.68 5.02146 178.694 5.02146H204.394C205.423 5.02146 205.982 5.60045 205.982 6.70581V9.75869C205.982 11.0798 205.198 11.5536 204.279 11.5536H197.078C195.845 11.5536 195.526 11.8746 195.526 13.1695L195.5 36.324C195.5 37.761 195.28 38.2347 193.483 38.2347H189.511C187.849 38.2347 187.604 37.6241 187.604 36.324M259.487 14.8433C258.484 13.9906 257.475 13.3116 256.451 12.8221C255.035 12.1536 253.551 11.8115 252.004 11.8115C249.318 11.8115 247.118 12.7273 245.414 14.5433C243.695 16.3645 242.843 18.7015 242.843 21.5491C242.843 24.3967 243.69 26.7127 245.388 28.4865C247.081 30.2551 249.292 31.1394 252.014 31.1394C253.624 31.1394 255.228 30.813 256.827 30.1498C257.522 29.8603 258.222 29.5129 258.912 29.1024C260.025 28.497 260.584 28.1496 260.584 29.5866V33.2922C260.6 35.1028 260.041 36.2293 258.086 37.0346C257.632 37.2241 257.156 37.3767 256.676 37.5188C255.056 37.9978 253.378 38.2294 251.633 38.2294C249.767 38.2294 247.975 37.9399 246.25 37.3714C244.536 36.7977 242.948 35.945 241.506 34.8344C239.457 33.2553 237.89 31.3341 236.797 29.0602C235.716 26.7916 235.167 24.3125 235.167 21.6333C235.167 19.3226 235.569 17.154 236.374 15.1433C237.184 13.1221 238.349 11.3325 239.886 9.785C241.438 8.23751 243.225 7.05847 245.258 6.22682C247.285 5.4057 249.428 4.99514 251.685 4.99514C253.472 4.99514 255.176 5.23727 256.796 5.72678C257.261 5.86363 257.715 6.02154 258.16 6.19524C259.905 6.90056 260.61 7.81116 260.595 9.31128V14.3012C260.574 15.3644 260.004 15.2749 259.503 14.8433M151.103 21.5912C151.103 24.3072 151.892 26.5864 153.47 28.4128C155.048 30.2498 156.992 31.1709 159.297 31.1709C161.601 31.1709 163.571 30.2498 165.144 28.4286C166.712 26.5969 167.496 24.3178 167.496 21.586C167.496 18.8542 166.712 16.5434 165.144 14.7117C163.571 12.8747 161.622 11.9589 159.297 11.9589C156.971 11.9589 155.048 12.88 153.47 14.7117C151.892 16.5434 151.103 18.8384 151.103 21.586M143.479 21.5912C143.479 19.2752 143.871 17.1066 144.67 15.0907C145.459 13.0695 146.625 11.2641 148.166 9.6692C149.624 8.14277 151.317 6.97425 153.235 6.16892C155.163 5.35307 157.191 4.94777 159.297 4.94777C161.403 4.94777 163.435 5.35307 165.374 6.17418C167.302 6.99004 169.027 8.17435 170.527 9.71131C172.037 11.2483 173.186 13.0221 173.955 15.0486C174.738 17.0645 175.125 19.2489 175.125 21.5912C175.125 23.5493 174.848 25.3863 174.31 27.1075C173.761 28.8287 172.956 30.4025 171.885 31.8342C170.375 33.8554 168.52 35.4292 166.309 36.5503C164.11 37.6715 161.768 38.2347 159.297 38.2347C157.207 38.2347 155.189 37.8241 153.272 37.0083C151.349 36.1924 149.65 35.0081 148.166 33.4711C146.625 31.8815 145.459 30.0761 144.67 28.0654C143.871 26.0653 143.479 23.9019 143.479 21.5912ZM117.936 36.6872C117.936 38.3663 118.166 38.2347 119.76 38.2347H124.076C125.581 38.2347 125.947 38.3505 125.947 36.6556V25.1494H132.934C134.951 25.1494 134.888 24.8757 136.774 22.007C137.24 21.3123 137.684 20.5964 138.123 19.8806C138.974 18.4541 138.431 18.291 137.046 18.2857H125.947V11.5115H137.48C139.021 11.5115 139.837 11.4588 141.676 8.32173C142.078 7.62693 142.486 6.93214 142.888 6.23735C143.766 4.70038 142.533 4.96882 141.582 4.96882H119.546C118.171 4.96882 117.941 4.98988 117.941 6.28472V36.6872H117.936ZM82.4023 36.6609V5.81626C82.4023 5.41096 82.5747 5.16358 82.8412 5.06357C83.1391 4.94777 83.2593 5.07936 83.5101 5.31622L104.188 23.3282V6.63212C104.188 5.23727 104.449 4.96882 105.599 4.96882H110.255C111.3 4.96882 111.624 5.32675 111.624 6.59001V37.6294C111.624 37.761 111.566 37.9978 111.373 38.1399C111.033 38.3926 110.704 38.0715 110.39 37.7767L89.8487 20.0437V36.6188C89.8487 38.3136 89.6188 38.2294 88.2967 38.2294H84.111C82.721 38.2294 82.4023 38.1662 82.4023 36.6556" fill="white"/>
<path fill-rule="evenodd" clip-rule="evenodd" d="M68.0841 58.4152C68.3872 58.5995 68.7478 58.7574 69.1658 58.8837C69.5891 59.0153 70.0176 59.0784 70.4565 59.0784C70.9582 59.0784 71.3815 58.9521 71.7316 58.6942C72.0869 58.4415 72.2594 58.031 72.2594 57.4625C72.2594 56.9835 72.1496 56.5888 71.9406 56.2835C71.7211 55.9782 71.4598 55.6992 71.1306 55.4571C70.8014 55.2044 70.4513 54.9781 70.0751 54.7728C69.6988 54.5675 69.3383 54.3202 69.0143 54.0307C68.6851 53.7412 68.4186 53.399 68.2095 53.0043C68.0005 52.6095 67.8908 52.1042 67.8908 51.4936C67.8908 50.5199 68.1521 49.783 68.6746 49.2882C69.2024 48.7987 69.934 48.546 70.8955 48.546C71.5173 48.546 72.0556 48.6039 72.5154 48.7197C72.97 48.8355 73.362 48.9934 73.6964 49.1882L73.2627 50.5672C72.97 50.4146 72.6356 50.2883 72.2594 50.183C71.8779 50.083 71.4964 50.0303 71.0993 50.0303C70.5506 50.0303 70.1535 50.1461 69.9026 50.3777C69.6518 50.6093 69.5316 50.9673 69.5316 51.4568C69.5316 51.841 69.6309 52.1674 69.8451 52.4305C70.0542 52.699 70.3259 52.9464 70.6551 53.1674C70.9791 53.3885 71.3344 53.6201 71.7159 53.8464C72.0974 54.0728 72.4475 54.3465 72.7715 54.657C73.0902 54.9728 73.3672 55.3518 73.5814 55.7834C73.7905 56.2203 73.9002 56.7625 73.9002 57.4257C73.9002 57.852 73.8323 58.2573 73.7016 58.6416C73.5605 59.0258 73.3515 59.3574 73.0746 59.6416C72.7976 59.9259 72.4475 60.1522 72.0294 60.3154C71.6062 60.4838 71.1202 60.568 70.5558 60.568C69.887 60.568 69.3121 60.5049 68.8262 60.368C68.3454 60.2417 67.9326 60.068 67.5981 59.8575L68.0998 58.41L68.0841 58.4152ZM82.7785 59.5153C82.4127 59.8522 81.9581 60.1154 81.3885 60.2943C80.8241 60.4786 80.2336 60.5733 79.6118 60.5733C78.8959 60.5733 78.2792 60.4312 77.7515 60.1469C77.2341 59.8575 76.8004 59.4574 76.4555 58.9311C76.1158 58.3994 75.8598 57.7678 75.703 57.0362C75.5463 56.2993 75.4679 55.4729 75.4679 54.5623C75.4679 52.6042 75.818 51.1094 76.5339 50.0882C77.2498 49.0618 78.2583 48.5513 79.5647 48.5513C79.9828 48.5513 80.4061 48.6092 80.8241 48.7092C81.2421 48.8145 81.6132 49.0303 81.9528 49.3513C82.2873 49.6724 82.5538 50.1198 82.7628 50.7093C82.9666 51.2883 83.0659 52.0463 83.0659 52.9779C83.0659 53.2411 83.0659 53.5201 83.0345 53.8149C83.0084 54.1096 82.9875 54.4202 82.9561 54.7412H77.1662C77.1662 55.3992 77.2237 55.994 77.323 56.5361C77.4275 57.0678 77.5947 57.5204 77.8246 57.8994C78.0598 58.2731 78.3472 58.5626 78.7025 58.7732C79.0579 58.9784 79.5073 59.0837 80.035 59.0837C80.4479 59.0837 80.8502 59.01 81.2526 58.8574C81.6602 58.7047 81.9685 58.5205 82.1775 58.3047L82.768 59.5206L82.7785 59.5153ZM81.5034 53.3675C81.5296 52.22 81.3728 51.3831 81.0227 50.8462C80.6726 50.3093 80.197 50.0409 79.5909 50.0409C78.8959 50.0409 78.3419 50.3093 77.9344 50.8462C77.5215 51.3831 77.2812 52.22 77.2028 53.3675H81.5034ZM91.4791 59.7206C91.0976 60.0154 90.6691 60.2259 90.1831 60.3628C89.7024 60.5049 89.1955 60.5733 88.6573 60.5733C87.9361 60.5733 87.3195 60.4312 86.8178 60.1469C86.3162 59.8575 85.9086 59.4574 85.6003 58.9311C85.2868 58.3994 85.0621 57.7625 84.9157 57.0256C84.7694 56.2835 84.6963 55.4624 84.6963 54.557C84.6963 52.599 85.0411 51.1041 85.7309 50.083C86.4207 49.0566 87.4136 48.546 88.6991 48.546C89.2948 48.546 89.8017 48.6039 90.2302 48.7039C90.6482 48.8092 91.0192 48.9513 91.3171 49.1197L90.8625 50.5672C90.2511 50.2146 89.5926 50.0356 88.882 50.0356C88.0563 50.0356 87.4397 50.3988 87.0216 51.1252C86.6088 51.8515 86.3946 52.9937 86.3946 54.557C86.3946 55.1834 86.4468 55.7676 86.5357 56.3203C86.6245 56.873 86.776 57.3467 86.9903 57.7573C87.1993 58.1573 87.4763 58.4837 87.8055 58.7153C88.1451 58.9521 88.5632 59.0732 89.0649 59.0732C89.4568 59.0732 89.8278 59.0047 90.1674 58.8679C90.5071 58.7258 90.7893 58.5679 90.9983 58.3836L91.4738 59.7153L91.4791 59.7206ZM94.7816 48.825V55.8413C94.7816 57.0046 94.8966 57.8362 95.1265 58.331C95.3617 58.8258 95.7902 59.0732 96.4172 59.0732C96.736 59.0732 97.0182 59.01 97.269 58.8784C97.5251 58.7468 97.7445 58.5784 97.9483 58.3679C98.1469 58.1521 98.3194 57.9047 98.4761 57.631C98.6224 57.352 98.7479 57.0678 98.8419 56.7783V48.8197H100.483V57.0309C100.483 57.5783 100.504 58.1521 100.54 58.7416C100.577 59.3311 100.629 59.8469 100.713 60.2891H99.5526L99.1398 58.6837H99.0718C98.8158 59.189 98.4396 59.6259 97.9588 60.0048C97.4728 60.3785 96.8614 60.568 96.1351 60.568C95.6491 60.568 95.2258 60.5049 94.86 60.3838C94.4942 60.2627 94.1859 60.0417 93.9246 59.7153C93.6634 59.3943 93.4752 58.9574 93.3498 58.3994C93.214 57.8415 93.1513 57.1257 93.1513 56.2519V48.8197H94.7921L94.7816 48.825ZM103.19 48.825H104.35L104.648 50.0356H104.71C104.925 49.5935 105.201 49.2461 105.541 48.9934C105.886 48.7408 106.299 48.6144 106.785 48.6144C107.13 48.6144 107.527 48.6829 107.966 48.825L107.647 50.4988C107.25 50.3567 106.9 50.2883 106.597 50.2883C106.116 50.2883 105.719 50.4304 105.41 50.7093C105.107 50.9936 104.909 51.3778 104.82 51.8515V60.2943H103.184V48.825H103.19ZM116.238 59.5153C115.872 59.8522 115.407 60.1154 114.848 60.2943C114.284 60.4786 113.698 60.5733 113.076 60.5733C112.355 60.5733 111.739 60.4312 111.216 60.1469C110.694 59.8575 110.26 59.4574 109.92 58.9311C109.575 58.3994 109.324 57.7678 109.162 57.0362C109.006 56.2993 108.927 55.4729 108.927 54.5623C108.927 52.6042 109.283 51.1094 109.999 50.0882C110.714 49.0618 111.723 48.5513 113.029 48.5513C113.453 48.5513 113.881 48.6092 114.294 48.7092C114.712 48.8145 115.088 49.0303 115.417 49.3513C115.757 49.6724 116.024 50.1198 116.227 50.7093C116.436 51.2883 116.541 52.0463 116.541 52.9779C116.541 53.2411 116.531 53.5201 116.504 53.8149C116.483 54.1096 116.457 54.4202 116.426 54.7412H110.641C110.641 55.3992 110.694 55.994 110.798 56.5361C110.903 57.0678 111.075 57.5204 111.3 57.8994C111.524 58.2731 111.822 58.5626 112.178 58.7732C112.538 58.9784 112.982 59.0837 113.51 59.0837C113.918 59.0837 114.331 59.01 114.728 58.8574C115.135 58.7047 115.438 58.5205 115.653 58.3047L116.248 59.5206L116.238 59.5153ZM114.963 53.3675C114.994 52.22 114.832 51.3831 114.482 50.8462C114.142 50.3093 113.656 50.0409 113.05 50.0409C112.35 50.0409 111.796 50.3093 111.383 50.8462C110.976 51.3831 110.73 52.22 110.652 53.3675H114.958H114.963ZM123.935 48.825H125.571V60.2943H123.935V48.825ZM123.637 45.3352C123.637 44.972 123.742 44.672 123.94 44.4457C124.149 44.2141 124.416 44.0983 124.75 44.0983C125.085 44.0983 125.362 44.2141 125.581 44.4299C125.806 44.651 125.91 44.951 125.91 45.3352C125.91 45.7195 125.806 45.9932 125.581 46.1984C125.362 46.4037 125.09 46.5037 124.75 46.5037C124.411 46.5037 124.149 46.3985 123.94 46.1827C123.742 45.9721 123.637 45.6879 123.637 45.3352ZM135.782 56.3519C135.782 57.1309 135.787 57.8362 135.802 58.4731C135.818 59.1048 135.876 59.7311 135.959 60.3417H134.846L134.48 58.9626H134.386C134.172 59.4206 133.838 59.8101 133.383 60.1101C132.928 60.4154 132.38 60.568 131.747 60.568C130.514 60.568 129.6 60.0838 129.004 59.1206C128.398 58.1573 128.1 56.6414 128.1 54.5781C128.1 52.62 128.466 51.141 129.203 50.1251C129.939 49.1197 130.953 48.6144 132.244 48.6144C132.678 48.6144 133.033 48.6408 133.294 48.6934C133.545 48.7513 133.832 48.8355 134.136 48.9618V44.2351H135.776V56.3466L135.782 56.3519ZM134.141 50.6357C133.927 50.4514 133.686 50.3198 133.425 50.2356C133.153 50.1514 132.803 50.1093 132.364 50.1093C131.559 50.1093 130.932 50.483 130.488 51.2146C130.039 51.9516 129.814 53.078 129.814 54.6097C129.814 55.2834 129.856 55.8887 129.939 56.4309C130.023 56.9783 130.148 57.4467 130.326 57.8468C130.499 58.2415 130.723 58.5468 131.005 58.7626C131.282 58.9732 131.632 59.0837 132.045 59.0837C133.143 59.0837 133.838 58.4363 134.141 57.1362V50.6409V50.6357ZM145.276 59.5153C144.916 59.8522 144.451 60.1154 143.886 60.2943C143.327 60.4786 142.732 60.5733 142.115 60.5733C141.399 60.5733 140.777 60.4312 140.255 60.1469C139.732 59.8575 139.304 59.4574 138.959 58.9311C138.619 58.3994 138.368 57.7678 138.211 57.0362C138.055 56.2993 137.971 55.4729 137.971 54.5623C137.971 52.6042 138.326 51.1094 139.037 50.0882C139.753 49.0618 140.767 48.5513 142.073 48.5513C142.496 48.5513 142.925 48.6092 143.343 48.7092C143.756 48.8145 144.132 49.0303 144.467 49.3513C144.796 49.6724 145.067 50.1198 145.271 50.7093C145.48 51.2883 145.585 52.0463 145.585 52.9779C145.585 53.2411 145.574 53.5201 145.548 53.8149C145.527 54.1096 145.501 54.4202 145.47 54.7412H139.685C139.685 55.3992 139.737 55.994 139.842 56.5361C139.946 57.0678 140.114 57.5204 140.344 57.8994C140.568 58.2731 140.861 58.5626 141.216 58.7732C141.582 58.9784 142.021 59.0837 142.549 59.0837C142.956 59.0837 143.364 59.01 143.766 58.8574C144.169 58.7047 144.477 58.5205 144.691 58.3047L145.282 59.5206L145.276 59.5153ZM144.001 53.3675C144.033 52.22 143.871 51.3831 143.521 50.8462C143.176 50.3093 142.695 50.0409 142.089 50.0409C141.389 50.0409 140.835 50.3093 140.427 50.8462C140.014 51.3831 139.774 52.22 139.696 53.3675H144.001ZM153.705 60.2943V53.299C153.705 52.1516 153.575 51.3252 153.308 50.8094C153.042 50.2988 152.566 50.0409 151.882 50.0409C151.275 50.0409 150.774 50.2251 150.382 50.5935C149.985 50.962 149.697 51.4094 149.514 51.9463V60.2943H147.874V48.825H149.055L149.352 50.0356H149.415C149.708 49.625 150.094 49.2724 150.591 48.9829C151.077 48.6934 151.673 48.546 152.357 48.546C152.838 48.546 153.266 48.6144 153.643 48.7513C154.008 48.8881 154.322 49.125 154.573 49.4513C154.824 49.783 155.012 50.2198 155.148 50.7725C155.273 51.3199 155.341 52.0147 155.341 52.8621V60.2943H153.7H153.705ZM156.731 48.825H158.126V46.5511L159.762 46.0248V48.825H162.228V50.3146H159.762V57.152C159.762 57.8257 159.84 58.31 160.002 58.6047C160.164 58.9047 160.42 59.0574 160.786 59.0574C161.089 59.0574 161.356 59.0205 161.575 58.9521C161.795 58.8837 162.035 58.7942 162.291 58.6889L162.615 59.9996C162.275 60.168 161.91 60.2996 161.507 60.3996C161.11 60.4996 160.692 60.547 160.248 60.547C159.49 60.547 158.947 60.2996 158.623 59.8048C158.293 59.31 158.137 58.4994 158.137 57.3836V50.3198H156.741V48.8302L156.731 48.825ZM164.407 48.825H166.048V60.2943H164.407V48.825ZM164.109 45.3352C164.109 44.972 164.209 44.672 164.418 44.4457C164.622 44.2141 164.893 44.0983 165.223 44.0983C165.552 44.0983 165.834 44.2141 166.053 44.4299C166.273 44.651 166.388 44.951 166.388 45.3352C166.388 45.7195 166.273 45.9932 166.053 46.1984C165.834 46.4037 165.557 46.5037 165.223 46.5037C164.888 46.5037 164.622 46.3985 164.418 46.1827C164.209 45.9721 164.109 45.6879 164.109 45.3352ZM167.94 48.825H169.33V46.5511L170.965 46.0248V48.825H173.427V50.3146H170.965V57.152C170.965 57.8257 171.044 58.31 171.206 58.6047C171.363 58.9047 171.629 59.0574 171.99 59.0574C172.293 59.0574 172.559 59.0205 172.779 58.9521C172.998 58.8837 173.239 58.7942 173.5 58.6889L173.819 59.9996C173.479 60.168 173.113 60.2996 172.711 60.3996C172.314 60.4996 171.885 60.547 171.451 60.547C170.694 60.547 170.15 60.2996 169.821 59.8048C169.497 59.31 169.335 58.4994 169.335 57.3836V50.3198H167.945V48.8302L167.94 48.825ZM178.03 56.2361L178.506 58.4626H178.621L178.961 56.2361L180.696 48.8302H182.357L179.645 59.1311C179.431 59.9575 179.217 60.7259 179.008 61.4523C178.793 62.1682 178.569 62.7893 178.313 63.3209C178.062 63.8525 177.78 64.2631 177.471 64.5578C177.158 64.8579 176.792 65.0052 176.369 65.0052C175.945 65.0052 175.569 64.9368 175.245 64.8L175.522 63.2367C175.736 63.3104 175.951 63.3262 176.165 63.284C176.374 63.2367 176.578 63.1051 176.766 62.8945C176.959 62.684 177.132 62.3629 177.294 61.9471C177.45 61.5207 177.597 60.9786 177.717 60.3049L174.022 48.8355H175.898L178.041 56.2414L178.03 56.2361ZM187.379 49.025C187.818 48.7513 188.356 48.5355 188.989 48.3828C189.621 48.2302 190.284 48.1512 190.985 48.1512C191.622 48.1512 192.134 48.2512 192.521 48.4407C192.913 48.6302 193.216 48.8934 193.43 49.2197C193.655 49.5514 193.796 49.9251 193.869 50.3462C193.932 50.7672 193.968 51.2094 193.968 51.6673C193.968 52.5832 193.948 53.478 193.911 54.3465C193.869 55.2202 193.848 56.0466 193.848 56.8309C193.848 57.4099 193.869 57.9468 193.911 58.4468C193.948 58.9416 194.016 59.4153 194.13 59.8575H192.85L192.443 58.5047H192.354C192.124 58.8995 191.805 59.2469 191.356 59.5364C190.917 59.8259 190.331 59.9733 189.589 59.9733C188.774 59.9733 188.111 59.689 187.588 59.1153C187.071 58.5416 186.809 57.752 186.809 56.7414C186.809 56.0835 186.919 55.5308 187.139 55.0886C187.358 54.6465 187.661 54.2833 188.058 54.0149C188.466 53.7359 188.941 53.5412 189.485 53.4254C190.039 53.3096 190.65 53.2517 191.324 53.2517H191.774C191.925 53.2517 192.087 53.2622 192.249 53.2727C192.296 52.799 192.322 52.3779 192.322 52.0094C192.322 51.141 192.197 50.5251 191.941 50.1725C191.685 49.8251 191.22 49.6461 190.535 49.6461C190.112 49.6461 189.657 49.7093 189.161 49.8409C188.665 49.9724 188.252 50.1356 187.917 50.3356L187.374 49.0303L187.379 49.025ZM192.281 54.5781C192.129 54.5676 191.978 54.5518 191.831 54.5465C191.68 54.536 191.528 54.5307 191.382 54.5307C191.026 54.5307 190.666 54.5675 190.326 54.6254C189.981 54.6833 189.673 54.7939 189.401 54.9465C189.135 55.0992 188.921 55.3045 188.759 55.5676C188.607 55.8255 188.523 56.1572 188.523 56.5519C188.523 57.1625 188.675 57.6415 188.968 57.9731C189.26 58.3152 189.631 58.4784 190.102 58.4784C190.739 58.4784 191.215 58.3258 191.565 58.0205C191.91 57.7152 192.145 57.3783 192.286 57.0099V54.5781H192.281ZM202.439 59.8048V52.8095C202.439 51.6621 202.303 50.8304 202.042 50.3198C201.776 49.8093 201.3 49.5514 200.621 49.5514C200.009 49.5514 199.513 49.7356 199.116 50.0988C198.719 50.4672 198.436 50.9199 198.248 51.4568V59.8048H196.607V48.3355H197.788L198.086 49.5514H198.159C198.447 49.1355 198.839 48.7881 199.33 48.4986C199.821 48.2091 200.412 48.0618 201.096 48.0618C201.577 48.0618 202.011 48.1302 202.382 48.267C202.758 48.4039 203.061 48.6408 203.317 48.9671C203.568 49.2987 203.756 49.7356 203.887 50.2883C204.017 50.8357 204.08 51.5305 204.08 52.3726V59.8048H202.444H202.439ZM213.779 55.8571C213.779 56.6361 213.784 57.3467 213.8 57.9784C213.81 58.61 213.868 59.2363 213.962 59.8469H212.843L212.483 58.4679H212.383C212.174 58.9258 211.835 59.31 211.385 59.6153C210.925 59.9206 210.382 60.0733 209.75 60.0733C208.517 60.0733 207.602 59.5943 207.001 58.631C206.4 57.6678 206.102 56.1519 206.102 54.0886C206.102 52.0252 206.468 50.6462 207.205 49.6356C207.942 48.625 208.961 48.1197 210.241 48.1197C210.68 48.1197 211.03 48.146 211.286 48.2039C211.547 48.2565 211.83 48.346 212.127 48.4671V43.7404H213.768V55.8571H213.779ZM212.138 50.1514C211.929 49.9672 211.688 49.8303 211.422 49.7461C211.155 49.6619 210.805 49.6198 210.361 49.6198C209.556 49.6198 208.935 49.9882 208.485 50.7199C208.036 51.4568 207.816 52.5832 207.816 54.1149C207.816 54.7886 207.858 55.3992 207.942 55.9413C208.031 56.4835 208.156 56.952 208.328 57.352C208.501 57.7468 208.736 58.052 209.008 58.2678C209.29 58.4837 209.635 58.5889 210.048 58.5889C211.14 58.5889 211.84 57.9415 212.138 56.6414V50.1514ZM221.298 48.3355H222.458L222.709 49.5724H222.798C223.357 48.5618 224.246 48.0565 225.442 48.0565C226.639 48.0565 227.538 48.5092 228.139 49.4145C228.734 50.3146 229.037 51.7936 229.037 53.8412C229.037 54.8044 228.938 55.6729 228.74 56.4466C228.546 57.2151 228.264 57.8731 227.898 58.4205C227.532 58.9626 227.093 59.3732 226.566 59.6574C226.038 59.9364 225.463 60.0785 224.826 60.0785C224.387 60.0785 224.036 60.0522 223.78 59.9996C223.524 59.9469 223.237 59.8364 222.934 59.668V64.3947H221.298V48.3355ZM222.934 57.9941C223.148 58.1784 223.389 58.3205 223.655 58.431C223.916 58.5363 224.266 58.5889 224.711 58.5889C225.521 58.5889 226.153 58.1784 226.623 57.352C227.099 56.5256 227.334 55.3466 227.334 53.8201C227.334 53.178 227.287 52.599 227.203 52.0779C227.125 51.562 226.984 51.1094 226.806 50.7357C226.623 50.3619 226.393 50.0725 226.111 49.8619C225.834 49.6619 225.484 49.5566 225.076 49.5566C223.969 49.5566 223.253 50.2409 222.934 51.5989V57.9994V57.9941ZM231.091 49.025C231.53 48.7513 232.068 48.5355 232.695 48.3828C233.322 48.2302 233.991 48.1512 234.691 48.1512C235.334 48.1512 235.846 48.2512 236.223 48.4407C236.609 48.6302 236.918 48.8934 237.132 49.2197C237.357 49.5514 237.503 49.9251 237.571 50.3462C237.639 50.7672 237.67 51.2094 237.67 51.6673C237.67 52.5832 237.654 53.478 237.618 54.3465C237.576 55.2202 237.555 56.0466 237.555 56.8309C237.555 57.4099 237.576 57.9468 237.618 58.4468C237.654 58.9416 237.728 59.4153 237.832 59.8575H236.547L236.149 58.5047H236.055C235.831 58.8995 235.496 59.2469 235.062 59.5364C234.624 59.8259 234.038 59.9733 233.296 59.9733C232.486 59.9733 231.823 59.689 231.295 59.1153C230.772 58.5416 230.521 57.752 230.521 56.7414C230.521 56.0835 230.626 55.5308 230.845 55.0886C231.07 54.6465 231.373 54.2833 231.776 54.0149C232.173 53.7359 232.643 53.5412 233.192 53.4254C233.74 53.3096 234.357 53.2517 235.036 53.2517H235.486C235.637 53.2517 235.799 53.2622 235.961 53.2727C236.008 52.799 236.029 52.3779 236.029 52.0094C236.029 51.141 235.904 50.5251 235.643 50.1725C235.392 49.8251 234.927 49.6461 234.247 49.6461C233.819 49.6461 233.369 49.7093 232.868 49.8409C232.371 49.9724 231.958 50.1356 231.624 50.3356L231.081 49.0303L231.091 49.025ZM235.987 54.5781C235.846 54.5676 235.69 54.5518 235.538 54.5465C235.386 54.536 235.235 54.5307 235.089 54.5307C234.728 54.5307 234.373 54.5675 234.033 54.6254C233.688 54.6833 233.38 54.7939 233.103 54.9465C232.836 55.0992 232.627 55.3045 232.465 55.5676C232.314 55.8255 232.23 56.1572 232.23 56.5519C232.23 57.1625 232.382 57.6415 232.669 57.9731C232.962 58.3152 233.333 58.4784 233.803 58.4784C234.43 58.4784 234.916 58.3258 235.266 58.0205C235.616 57.7152 235.852 57.3783 235.987 57.0099V54.5781ZM243.141 55.7466L243.622 57.9731H243.727L244.077 55.7466L245.801 48.3407H247.463L244.751 58.6416C244.531 59.4679 244.327 60.2364 244.113 60.9628C243.899 61.6787 243.669 62.2998 243.418 62.8314C243.167 63.363 242.885 63.7736 242.577 64.0683C242.263 64.3631 241.898 64.5157 241.469 64.5157C241.041 64.5157 240.67 64.4526 240.351 64.3104L240.628 62.7524C240.842 62.8261 241.051 62.8419 241.265 62.7945C241.48 62.7524 241.678 62.6208 241.866 62.405C242.06 62.1945 242.232 61.8734 242.389 61.4523C242.556 61.0365 242.692 60.4891 242.812 59.8101L239.123 48.3407H240.994L243.136 55.7466H243.141ZM254.204 59.8048V52.9937C254.204 52.3779 254.188 51.8621 254.146 51.4252C254.11 50.9883 254.031 50.6357 253.911 50.3619C253.791 50.083 253.624 49.883 253.41 49.7514C253.19 49.625 252.913 49.5566 252.568 49.5566C252.051 49.5566 251.617 49.7566 251.262 50.1619C250.901 50.5672 250.656 51.0304 250.515 51.5515V59.8101H248.874V48.3407H250.039L250.337 49.5566H250.4C250.718 49.1145 251.095 48.7513 251.539 48.4776C251.972 48.2039 252.537 48.067 253.221 48.067C253.796 48.067 254.272 48.1933 254.648 48.446C255.019 48.6987 255.312 49.1461 255.521 49.7882C255.792 49.2513 256.184 48.8355 256.696 48.525C257.203 48.2197 257.768 48.067 258.374 48.067C258.875 48.067 259.304 48.1302 259.659 48.2618C260.015 48.3934 260.307 48.6197 260.527 48.946C260.746 49.2776 260.908 49.7145 261.018 50.2567C261.128 50.7988 261.175 51.4831 261.175 52.3095V59.8101H259.534V52.5148C259.534 51.5252 259.44 50.783 259.252 50.2935C259.058 49.804 258.625 49.5566 257.94 49.5566C257.365 49.5566 256.911 49.7356 256.566 50.0935C256.226 50.4514 255.986 50.9409 255.85 51.5515V59.8101H254.204V59.8048ZM270.518 59.0258C270.152 59.3627 269.687 59.6259 269.128 59.8048C268.564 59.989 267.973 60.0785 267.346 60.0785C266.63 60.0785 266.019 59.9364 265.486 59.6574C264.963 59.3732 264.53 58.9626 264.19 58.4415C263.85 57.9152 263.594 57.2836 263.443 56.5519C263.281 55.815 263.197 54.9886 263.197 54.0728C263.197 52.1147 263.552 50.6251 264.268 49.5987C264.984 48.5723 265.993 48.0618 267.299 48.0618C267.722 48.0618 268.151 48.1197 268.569 48.2197C268.987 48.3249 269.363 48.5407 269.692 48.8618C270.032 49.1829 270.293 49.6356 270.497 50.2198C270.706 50.7988 270.811 51.5568 270.811 52.4884C270.811 52.7516 270.8 53.0306 270.774 53.3253C270.753 53.6254 270.727 53.9307 270.696 54.2517H264.916C264.916 54.9097 264.963 55.5097 265.073 56.0414C265.178 56.5782 265.345 57.0362 265.575 57.4046C265.799 57.7783 266.092 58.0731 266.442 58.2784C266.808 58.4889 267.247 58.5889 267.78 58.5889C268.187 58.5889 268.595 58.5152 268.997 58.3626C269.395 58.2099 269.708 58.0257 269.922 57.8099L270.518 59.0258ZM269.243 52.8832C269.274 51.7357 269.112 50.8883 268.762 50.3567C268.412 49.8198 267.937 49.5514 267.33 49.5514C266.63 49.5514 266.076 49.8198 265.669 50.3567C265.256 50.8883 265.01 51.7305 264.937 52.8832H269.243ZM278.942 59.8048V52.8095C278.942 51.6621 278.811 50.8304 278.545 50.3198C278.278 49.8093 277.803 49.5514 277.113 49.5514C276.512 49.5514 276.01 49.7356 275.613 50.0988C275.216 50.4672 274.934 50.9199 274.751 51.4568V59.8048H273.115V48.3355H274.296L274.589 49.5514H274.652C274.944 49.1355 275.336 48.7881 275.827 48.4986C276.319 48.2091 276.909 48.0618 277.594 48.0618C278.074 48.0618 278.503 48.1302 278.879 48.267C279.25 48.4039 279.564 48.6408 279.809 48.9671C280.06 49.2987 280.253 49.7356 280.379 50.2883C280.509 50.8357 280.577 51.5305 280.577 52.3726V59.8048H278.931H278.942ZM281.967 48.3355H283.357V46.0616L284.993 45.5352V48.3355H287.459V49.8251H284.993V56.6625C284.993 57.3362 285.077 57.8204 285.233 58.1205C285.39 58.4205 285.657 58.5679 286.022 58.5679C286.325 58.5679 286.587 58.5363 286.806 58.4679C287.026 58.3942 287.266 58.31 287.527 58.2047L287.846 59.5101C287.506 59.6785 287.141 59.8101 286.738 59.9101C286.336 60.0101 285.918 60.0627 285.468 60.0627C284.711 60.0627 284.167 59.8101 283.843 59.3153C283.514 58.8153 283.352 58.0099 283.352 56.8941V49.8303H281.962V48.3407L281.967 48.3355ZM289.189 57.9257C289.492 58.1099 289.853 58.2679 290.271 58.3942C290.689 58.5258 291.123 58.5889 291.556 58.5889C292.058 58.5889 292.481 58.4626 292.831 58.2047C293.181 57.952 293.354 57.5362 293.354 56.973C293.354 56.494 293.249 56.0993 293.035 55.794C292.821 55.4834 292.554 55.2097 292.225 54.9676C291.906 54.7149 291.546 54.4939 291.164 54.2833C290.788 54.078 290.438 53.8306 290.109 53.5412C289.78 53.2517 289.513 52.9095 289.299 52.5148C289.09 52.1147 288.98 51.6147 288.98 51.0041C288.98 50.0251 289.241 49.2934 289.764 48.7934C290.292 48.2986 291.023 48.0512 291.98 48.0512C292.601 48.0512 293.145 48.1144 293.6 48.2302C294.054 48.3407 294.451 48.4986 294.786 48.6987L294.347 50.0724C294.059 49.9198 293.725 49.7935 293.343 49.6935C292.962 49.5935 292.581 49.5461 292.183 49.5461C291.635 49.5461 291.238 49.6619 290.987 49.8882C290.736 50.1146 290.605 50.4777 290.605 50.9673C290.605 51.3515 290.715 51.6778 290.929 51.941C291.138 52.2095 291.41 52.4569 291.739 52.6779C292.063 52.899 292.419 53.1201 292.795 53.3517C293.176 53.578 293.526 53.8517 293.85 54.1675C294.174 54.4833 294.446 54.857 294.66 55.2887C294.869 55.7255 294.979 56.273 294.979 56.9309C294.979 57.3573 294.916 57.7678 294.78 58.1468C294.645 58.531 294.43 58.8626 294.153 59.1469C293.876 59.4258 293.521 59.6574 293.108 59.8206C292.685 59.989 292.199 60.0733 291.635 60.0733C290.966 60.0733 290.391 60.0101 289.905 59.8785C289.414 59.7469 289.006 59.5732 288.672 59.3627L289.173 57.9152L289.189 57.9257Z" fill="white"/>
</g>
<defs>
<clipPath id="clip0_180_578">
<rect width="295" height="65" fill="white"/>
</clipPath>
</defs>
</svg>
